# WaveFront *.obj file (generated by CINEMA 4D)

g supports_ballast_verylong
v -0.5 -0.0010000000475 -11.49754619598389
v -0.5 0.66647005081177 -11.49754619598389
v 0.5 -0.0010000000475 -11.49754619598389
v 0.5 0.66647005081177 -11.49754619598389
v 0.50803476572037 -0.0010000000475 -12.50085926055908
v 0.50764334201813 0.7217732667923 -12.4998836517334
v -0.49296671152115 -0.0010000000475 -12.49754619598389
v -0.5 0.7217732667923 -12.49754619598389
v -0.5 0.72200000286102 -12.49754619598389
v 0.50961005687714 0.72254180908203 -12.49754619598389
v 0.50703477859497 -0.0010000000475 -13.50085926055908
v 0.50803476572037 0.77700001001358 -13.50754547119141
v -0.49296671152115 -0.0010000000475 -13.49754619598389
v -0.5 0.7773323059082 -13.49754619598389
v -0.5 0.77668631076813 -13.49754619598389
v 0.50800001621246 0.77700001001358 -13.50751972198486
v 0.5 -0.0010000000475 -14.49754619598389
v 0.5 0.8322936296463 -14.49754619598389
v -0.5 -0.0010000000475 -14.49754619598389
v -0.5 0.83019381761551 -14.49754619598389
v -0.5 0.83211356401443 -14.49754619598389
v 0.5 0.830979347229 -14.49754619598389
v 0.5 -0.0010000000475 -15.49754619598389
v 0.5 0.88717466592789 -15.49754619598389
v -0.5 -0.0010000000475 -15.49754619598389
v -0.5 0.88774055242538 -15.49754619598389
v -0.5 0.88799518346786 -15.49754619598389
v 0.5 0.88732397556305 -15.49754619598389
v 0.5 -0.0010000000475 -16.49754524230957
v 0.5 0.94302541017532 -16.49754524230957
v -0.5 -0.0010000000475 -16.49754524230957
v -0.5 0.94301104545593 -16.49754524230957
v -0.5 0.94303345680237 -16.49754524230957
v 0.5 0.94301909208298 -16.49754524230957
v 0.5 -0.0010000000475 -17.4984130859375
v 0.5 1 -17.4984130859375
v -0.5 -0.0010000000475 -17.4984130859375
v -0.5 1 -17.4984130859375
v -0.5 -0.0010000000475 -5.49835062026978
v -0.5 0.33470425009727 -5.49835062026978
v 0.5 -0.0010000000475 -5.49835062026978
v 0.5 0.33470425009727 -5.49835062026978
v 0.5 -0.0010000000475 -6.49835062026978
v 0.5 0.39132302999496 -6.49835062026978
v -0.5 -0.0010000000475 -6.49835062026978
v -0.5 0.39002767205238 -6.49835062026978
v -0.5 0.38959929347038 -6.49835062026978
v 0.5 0.3913554251194 -6.49835062026978
v 0.5 -0.0010000000475 -7.49835062026978
v 0.5 0.44567787647247 -7.49835062026978
v -0.5 -0.0010000000475 -7.49835062026978
v -0.5 0.44448640942574 -7.49835062026978
v -0.5 0.44567185640335 -7.49835062026978
v 0.5 0.44448038935661 -7.49835062026978
v 0.5 -0.0010000000475 -8.49835014343262
v 0.5 0.50065302848816 -8.49835014343262
v -0.5 -0.0010000000475 -8.49835014343262
v -0.5 0.50065302848816 -8.49835014343262
v -0.5 0.50064700841904 -8.49835014343262
v 0.5 0.50064700841904 -8.49835014343262
v 0.5 -0.0010000000475 -9.49835014343262
v 0.5 0.55506145954132 -9.49835014343262
v -0.5 -0.0010000000475 -9.49835014343262
v -0.5 0.55506145954132 -9.49835014343262
v -0.5 0.55515873432159 -9.49835014343262
v 0.5 0.55515873432159 -9.49835014343262
v 0.5 -0.0010000000475 -10.49835014343262
v 0.5 0.61119663715363 -10.49835014343262
v -0.5 -0.0010000000475 -10.49835014343262
v -0.5 0.61119663715363 -10.49835014343262
v -0.5 0.61103695631027 -10.49835014343262
v 0.5 0.61103695631027 -10.49835014343262
v 0.5 -0.0010000000475 -11.49835014343262
v 0.5 0.66665333509445 -11.49835014343262
v -0.5 -0.0010000000475 -11.49835014343262
v -0.5 0.66496253013611 -11.49835014343262
v -0.5 -0.0010000000475 0.5
v -0.5 0.0030469999183 0.5
v 0.5 -0.0010000000475 0.5
v 0.5 0.0030469999183 0.5
v 0.5 -0.0010000000475 -0.5
v 0.5 0.05773066729307 -0.5
v -0.5 -0.0010000000475 -0.5
v -0.5 0.05773066729307 -0.5
v -0.5 0.05897783115506 -0.5
v 0.5 0.05897783115506 -0.5
v 0.5 -0.0010000000475 -1.5
v 0.5 0.11325634270906 -1.5
v -0.5 -0.0010000000475 -1.5
v -0.5 0.11458422243595 -1.5
v -0.5 0.11325032263994 -1.5
v 0.5 0.11457820236683 -1.5
v 0.5 -0.0010000000475 -2.5
v 0.5 0.16935554146767 -2.5
v -0.5 -0.0010000000475 -2.5
v -0.5 0.16890794038773 -2.5
v -0.5 0.16934952139854 -2.5
v 0.5 0.1689019203186 -2.5
v 0.5 -0.0010000000475 -3.5
v 0.5 0.22418794035912 -3.5
v -0.5 -0.0010000000475 -3.5
v -0.5 0.224250882864 -3.5
v -0.5 0.2234393954277 -3.5
v 0.5 0.2234393954277 -3.5
v 0.5 -0.0010000000475 -4.5
v 0.5 0.28007394075394 -4.5
v -0.5 -0.0010000000475 -4.5
v -0.5 0.28007394075394 -4.5
v -0.5 0.27983173727989 -4.5
v 0.5 0.27983173727989 -4.5
v 0.5 -0.0010000000475 -5.5
v 0.5 0.33425295352936 -5.5
v -0.5 -0.0010000000475 -5.5
v -0.5 0.33425295352936 -5.5
# 114 vertices

vn -1 0 0
vn 1 0 0
vn 0 -1 0
vn 0 0.98651695251465 0.163659080863
vn 0 0 -1
vn 0 0.98626184463501 0.16518948972225
vn 0 0 1
# 7 normals

vt -0.99375057220459 0 0
vt -0.99885559082031 0.32493591308594 0
vt 0.00218486785889 0.26786804199219 0
vt 0.00624942779541 0 0
vt 0.00003242492676 -0.00015163421631 0
vt 0.00003337860107 0.66431427001953 0
vt -0.99996948242188 0.71730804443359 0
vt -1.00006484985352 0.00030326843262 0
vt 0 0 0
vt 0 1 0
vt 1 1 0
vt 1.00003242492676 -0.00015163421631 0
vt 0.87488842010498 -0.00030326843262 0
vt 0.8771505355835 0.71703624725342 0
vt 1.87209033966064 0.77778625488281 0
vt 1.8766975402832 0 0
vt -1 0 0
vt -0.99996757507324 0.77759075164795 0
vt 0.00003242492676 0.7188777923584 0
vt 1 0 0
vt 1.00003242492676 0.78009414672852 0
vt 2 0.83148097991943 0
vt 2 0 0
vt -0.99996757507324 -0.00015163421631 0
vt -0.99996757507324 0.830078125 0
vt 0.00003242492676 0.78009414672852 0
vt 1 0.83148097991943 0
vt 1.99990272521973 0.88503170013428 0
vt -1 0.88707542419434 0
vt 0 0.83148097991943 0
vt 0.99993515014648 0.88488006591797 0
vt 1.99996757507324 0.94157218933105 0
vt -1 0.94142055511475 0
vt 0 0.88832473754883 0
vt 0.99996757507324 0.94157218933105 0
vt 1.99996757507324 1.00015163421631 0
vt -1 1 0
vt 0 0.94142055511475 0
vt 0.00003051757812 0 0
vt 0.99943542480469 0.32554626464844 0
vt 2.00018310546875 0.38301086425781 0
vt -0.99365329742432 -0.00045490264893 0
vt -1.00009155273438 0.38240051269531 0
vt 0.00114440917969 0.32493591308594 0
vt 0.00634670257568 -0.00045490264893 0
vt 1.00006484985352 -0.00030326843262 0
vt 1.00222778320312 0.38240051269531 0
vt 1.99981689453125 0.43682861328125 0
vt -0.99371814727783 -0.00015163421631 0
vt -0.99383544921875 0.43653869628906 0
vt 0.00177192687988 0.38116455078125 0
vt 0.00628185272217 -0.00015163421631 0
vt 0.99981689453125 0.43682861328125 0
vt 2.00146484375 0.49447631835938 0
vt -0.99996948242188 0.49418640136719 0
vt -0.00013732910156 0.43667602539062 0
vt 1.00152587890625 0.49432373046875 0
vt 1.9996337890625 0.54970550537109 0
vt -0.99368572235107 -0.00030326843262 0
vt -1.00051879882812 0.54767608642578 0
vt 0.00156021118164 0.49417114257812 0
vt 0.00631427764893 -0.00030326843262 0
vt 0.74928092956543 -0.00052070617676 0
vt 0.74920654296875 0.55011749267578 0
vt 1.75003051757812 0.61277008056641 0
vt 1.74928092956543 -0.00052070617676 0
vt -0.9996337890625 0.60373687744141 0
vt -0.0002965927124 0.54955291748047 0
vt 0.8743896484375 0.61193084716797 0
vt 1.87551307678223 0.66497802734375 0
vt 1.87426376342773 -0.00124168395996 0
vt -0.99929809570312 0.66274261474609 0
vt -0.00036430358887 0.60373687744141 0
vt 1.00048828125 0.007080078125 0
vt 1.99990844726562 0.05410766601562 0
vt -1.00006103515625 0.05438232421875 0
vt 0.00055122375488 0.00691223144531 0
vt 1.00125122070312 0.05519104003906 0
vt 2.00372314453125 0.10250854492188 0
vt -1.0008544921875 0.10279846191406 0
vt -0.00007343292236 0.05438232421875 0
vt 1.00057983398438 0.10295104980469 0
vt 2.00372314453125 0.157470703125 0
vt -0.99365043640137 -0.00045490264893 0
vt -0.99937438964844 0.15776062011719 0
vt 0.00062274932861 0.10279846191406 0
vt 1.00192260742188 0.15731811523438 0
vt 2.00146484375 0.21014404296875 0
vt -0.99859619140625 0.21163940429688 0
vt 0.00062274932861 0.15776062011719 0
vt 1.00143432617188 0.21058654785156 0
vt 1.99838256835938 0.26446533203125 0
vt -0.997802734375 0.26786804199219 0
vt 0.00140380859375 0.21163940429688 0
vt 1.00213623046875 0.26802062988281 0
vt 1.9993896484375 0.32569885253906 0
# 96 texture coordinates

f 107/4/1 109/3/1 114/2/1 113/1/1
f 5/8/2 6/7/2 4/6/2 3/5/2
f 5/12/3 3/11/3 1/10/3 7/9/3
f 1/4/1 2/6/1 8/7/1 7/1/1
f 4/12/4 6/11/4 8/10/4 2/9/4
f 10/12/4 12/11/4 14/10/4 9/9/4
f 11/16/2 12/15/2 10/14/2 5/13/2
f 11/12/3 5/11/3 7/10/3 13/9/3
f 7/9/1 9/19/1 14/18/1 13/17/1
f 16/12/4 18/11/4 20/10/4 15/9/4
f 17/23/2 18/22/2 16/21/2 11/20/2
f 17/12/3 11/11/3 13/10/3 19/9/3
f 13/5/1 15/26/1 20/25/1 19/24/1
f 22/12/4 24/11/4 26/10/4 21/9/4
f 23/23/2 24/28/2 22/27/2 17/20/2
f 23/12/3 17/11/3 19/10/3 25/9/3
f 19/9/1 21/30/1 26/29/1 25/17/1
f 29/12/3 23/11/3 25/10/3 31/9/3
f 29/23/2 30/32/2 28/31/2 23/20/2
f 28/12/4 30/11/4 32/10/4 27/9/4
f 25/9/1 27/34/1 32/33/1 31/17/1
f 35/12/3 29/11/3 31/10/3 37/9/3
f 35/23/2 36/36/2 34/35/2 29/20/2
f 37/20/5 38/11/5 36/10/5 35/9/5
f 31/9/1 33/38/1 38/37/1 37/17/1
f 34/12/6 36/11/6 38/10/6 33/39/6
f 110/12/6 112/11/6 114/10/6 109/9/6
f 43/23/2 44/41/2 42/40/2 41/20/2
f 43/12/3 41/11/3 39/10/3 45/9/3
f 39/45/1 40/44/1 46/43/1 45/42/1
f 42/12/4 44/11/4 46/10/4 40/9/4
f 48/12/4 50/11/4 52/10/4 47/9/4
f 49/23/2 50/48/2 48/47/2 43/46/2
f 49/12/3 43/11/3 45/10/3 51/9/3
f 45/52/1 47/51/1 52/50/1 51/49/1
f 54/12/4 56/11/4 58/10/4 53/9/4
f 55/23/2 56/54/2 54/53/2 49/12/2
f 55/12/3 49/11/3 51/10/3 57/9/3
f 51/9/1 53/56/1 58/55/1 57/17/1
f 60/12/4 62/11/4 64/10/4 59/9/4
f 61/23/2 62/58/2 60/57/2 55/12/2
f 61/12/3 55/11/3 57/10/3 63/9/3
f 57/62/1 59/61/1 64/60/1 63/59/1
f 67/12/3 61/11/3 63/10/3 69/9/3
f 67/66/2 68/65/2 66/64/2 61/63/2
f 66/12/4 68/11/4 70/10/4 65/9/4
f 63/52/1 65/68/1 70/67/1 69/49/1
f 73/12/3 67/11/3 69/10/3 75/9/3
f 73/71/2 74/70/2 72/69/2 67/13/2
f 75/9/5 76/12/5 74/11/5 73/10/5
f 69/4/1 71/73/1 76/72/1 75/1/1
f 72/12/6 74/11/6 76/10/6 71/9/6
f 79/9/7 80/12/7 78/11/7 77/10/7
f 81/23/2 82/75/2 80/74/2 79/20/2
f 81/12/3 79/11/3 77/10/3 83/9/3
f 77/45/1 78/77/1 84/76/1 83/42/1
f 80/12/4 82/11/4 84/10/4 78/9/4
f 86/12/4 88/11/4 90/10/4 85/9/4
f 87/23/2 88/79/2 86/78/2 81/46/2
f 87/12/3 81/11/3 83/10/3 89/9/3
f 83/9/1 85/81/1 90/80/1 89/17/1
f 92/12/4 94/11/4 96/10/4 91/9/4
f 93/23/2 94/83/2 92/82/2 87/20/2
f 93/12/3 87/11/3 89/10/3 95/9/3
f 89/45/1 91/86/1 96/85/1 95/84/1
f 98/12/4 100/11/4 102/10/4 97/9/4
f 99/23/2 100/88/2 98/87/2 93/46/2
f 99/12/3 93/11/3 95/10/3 101/9/3
f 95/5/1 97/90/1 102/89/1 101/24/1
f 105/12/3 99/11/3 101/10/3 107/9/3
f 105/23/2 106/92/2 104/91/2 99/46/2
f 104/12/4 106/11/4 108/10/4 103/9/4
f 101/4/1 103/94/1 108/93/1 107/1/1
f 111/12/3 105/11/3 107/10/3 113/9/3
f 111/23/2 112/96/2 110/95/2 105/12/2
f 113/9/5 114/12/5 112/11/5 111/10/5
