# Blender 3.4.1
# www.blender.org
mtllib turn_slope_gravel_test.mtl
o Plane
v 0.000000 -0.000000 1.000000
v 0.000000 0.000000 0.000000
v 0.780361 0.085345 1.076859
v 0.975451 0.085288 0.096074
v 1.530733 0.210815 1.304482
v 1.913416 0.208722 0.380602
v 2.222280 0.342898 1.674121
v 2.777850 0.334137 0.842652
v 2.828425 0.473456 2.171572
v 3.535532 0.462347 1.464466
v 3.325876 0.597145 2.777718
v 4.157346 0.593491 2.222148
v 3.695516 0.722482 3.469265
v 4.619395 0.725545 3.086582
v 3.923139 0.848592 4.219637
v 4.903924 0.849203 4.024547
v 3.999997 0.999999 4.999998
v 4.999997 0.999999 4.999998
v 0.000000 -0.000000 1.000000
v 0.000000 0.000000 0.000000
v 0.780361 -0.000000 1.076859
v 0.975451 -0.000000 0.096074
v 1.530733 -0.000000 1.304482
v 1.913416 -0.000000 0.380602
v 2.222280 -0.000000 1.674121
v 2.777850 -0.000000 0.842652
v 2.828425 -0.000000 2.171572
v 3.535532 -0.000000 1.464466
v 3.325876 -0.000000 2.777718
v 4.157346 -0.000000 2.222148
v 3.695516 -0.000001 3.469265
v 4.619395 -0.000001 3.086582
v 3.923139 -0.000001 4.219637
v 4.903924 -0.000001 4.024547
v 3.999997 -0.000001 4.999998
v 4.999997 -0.000001 4.999998
vn -0.0958 0.9954 -0.0095
vn -0.1334 0.9902 -0.0416
vn -0.1248 0.9895 -0.0728
vn -0.1059 0.9894 -0.0997
vn -0.0850 0.9897 -0.1152
vn -0.0678 0.9895 -0.1275
vn -0.0424 0.9901 -0.1336
vn -0.0168 0.9856 -0.1680
vn 0.9952 -0.0000 -0.0980
vn -0.0980 -0.0000 0.9952
vn -0.8819 -0.0000 0.4714
vn 0.0980 -0.0000 -0.9952
vn 0.8819 -0.0000 -0.4714
vn -0.6344 -0.0000 0.7730
vn 0.6344 -0.0000 -0.7730
vn -0.2903 -0.0000 0.9569
vn -0.9569 -0.0000 0.2903
vn 0.2903 -0.0000 -0.9569
vn 0.9569 -0.0000 -0.2903
vn -0.7730 -0.0000 0.6344
vn -0.0000 -0.0000 1.0000
vn 0.7730 -0.0000 -0.6344
vn -0.4714 -0.0000 0.8819
vn -0.9952 -0.0000 0.0980
vn 0.4714 -0.0000 -0.8819
vt 0.000409 0.997782
vt 0.013618 0.021562
vt 0.998570 0.988048
vt 0.995709 0.001636
vt 0.000390 0.003238
vt 0.000462 0.993049
vt 0.988487 0.104824
vt 0.008763 0.104824
vt 0.998569 -0.000337
vt 0.998569 0.992013
vt 0.001713 0.085312
vt 0.993838 0.085312
vt 0.000390 0.002086
vt 0.000621 0.992913
vt 0.983658 0.227413
vt 0.010135 0.227413
vt 0.998569 -0.000336
vt 0.998569 0.992125
vt 0.002184 0.208510
vt 0.994309 0.208510
vt 0.000390 0.000752
vt 0.000712 0.992268
vt 0.008408 0.356485
vt 0.985031 0.356485
vt 0.998569 -0.000336
vt 0.998569 0.992441
vt 0.994783 0.333672
vt 0.002657 0.333672
vt 0.000390 0.000466
vt 0.000548 0.992563
vt 0.983303 0.484061
vt 0.012880 0.484061
vt 0.998569 -0.000336
vt 0.998569 0.992996
vt 0.003134 0.461605
vt 0.995259 0.461605
vt 0.000390 0.001964
vt 0.000419 0.994055
vt 0.014248 0.604904
vt 0.987771 0.604904
vt 0.998569 -0.000336
vt 0.998569 0.993203
vt 0.992847 0.592448
vt 0.003612 0.592448
vt 0.000390 0.003047
vt 0.000390 0.994127
vt 0.989139 0.727362
vt 0.010965 0.727362
vt 0.998569 -0.000336
vt 0.998569 0.992025
vt 0.001200 0.724193
vt 0.996426 0.724193
vt 0.000484 0.003055
vt 0.000390 0.999055
vt 0.985857 0.850578
vt 0.012334 0.850578
vt 0.998569 -0.000336
vt 0.998569 0.995789
vt 0.994007 0.847614
vt 0.004773 0.847614
vt 0.000456 0.001925
vt 0.999899 0.000100
vt 0.987242 0.998589
vt 0.998569 -0.000336
vt 0.002380 0.997945
vt 0.000100 0.000100
vt 0.013907 0.008153
vt 0.995385 0.001128
vt 0.988433 0.021174
vt 0.008709 0.021174
vt 0.003940 0.002426
vt 0.996066 0.002426
vt 0.983524 0.020784
vt 0.010001 0.020784
vt 0.004297 0.003215
vt 0.996423 0.003215
vt 0.008191 0.020395
vt 0.984815 0.020395
vt 0.996778 0.004006
vt 0.004652 0.004006
vt 0.983004 0.020005
vt 0.012582 0.020005
vt 0.005010 0.004795
vt 0.997135 0.004795
vt 0.013871 0.019616
vt 0.987394 0.019616
vt 0.994601 0.005586
vt 0.005366 0.005586
vt 0.988684 0.019226
vt 0.010510 0.019226
vt 0.002831 0.006375
vt 0.998057 0.006375
vt 0.985320 0.018836
vt 0.011797 0.018836
vt 0.995523 0.007165
vt 0.006288 0.007165
vt 0.999899 0.999900
vt 0.986610 0.018445
vt 0.001448 0.006263
vt 0.000100 0.999900
s 0
usemtl Balast
f 2/3/1 1/1/1 3/5/1 4/9/1
f 4/10/2 3/6/2 5/13/2 6/17/2
f 6/18/3 5/14/3 7/21/3 8/25/3
f 8/26/4 7/22/4 9/29/4 10/33/4
f 10/34/5 9/30/5 11/37/5 12/41/5
f 12/42/6 11/38/6 13/45/6 14/49/6
f 14/50/7 13/46/7 15/53/7 16/57/7
f 16/58/8 15/54/8 17/61/8 18/64/8
f 16/59/9 18/65/9 36/99/9 34/95/9
f 3/7/10 1/2/10 19/67/10 21/69/10
f 13/47/11 11/39/11 29/85/11 31/89/11
f 2/4/12 4/11/12 22/71/12 20/68/12
f 12/43/13 14/51/13 32/91/13 30/87/13
f 9/31/14 7/23/14 25/77/14 27/81/14
f 8/27/15 10/35/15 28/83/15 26/79/15
f 5/15/16 3/8/16 21/70/16 23/73/16
f 15/55/17 13/48/17 31/90/17 33/93/17
f 4/12/18 6/19/18 24/75/18 22/72/18
f 14/52/19 16/60/19 34/96/19 32/92/19
f 11/40/20 9/32/20 27/82/20 29/86/20
f 18/66/21 17/62/21 35/97/21 36/100/21
f 10/36/22 12/44/22 30/88/22 28/84/22
f 7/24/23 5/16/23 23/74/23 25/78/23
f 17/63/24 15/56/24 33/94/24 35/98/24
f 6/20/25 8/28/25 26/80/25 24/76/25
