# Blender 3.4.1
# www.blender.org
mtllib ballast_curved_slope_super_large.mtl
o Plane
v 0.000000 0.000000 0.000000
v 1.000000 0.000000 0.000000
v 0.000000 0.000000 0.000000
v 1.000000 0.000000 0.000000
v 0.034257 0.000000 -1.046450
v 1.032116 0.000000 -0.981047
v 0.034257 0.030000 -1.046450
v 1.032116 0.030000 -0.981047
v 0.136882 0.000000 -2.088419
v 1.128327 0.000000 -1.957893
v 0.136882 0.070000 -2.088419
v 1.128327 0.070000 -1.957893
v 0.307435 0.000002 -3.121445
v 1.288220 0.000000 -2.926355
v 0.307435 0.100002 -3.121445
v 1.288220 0.100000 -2.926355
v 0.545186 0.000002 -4.141105
v 1.511112 0.000002 -3.882286
v 0.545186 0.140002 -4.141105
v 1.511112 0.140002 -3.882286
v 0.849117 0.000002 -5.143032
v 1.796047 0.000002 -4.821593
v 0.849117 0.180002 -5.143032
v 1.796047 0.180002 -4.821593
v 1.217926 0.000002 -6.122936
v 2.141806 0.000002 -5.740252
v 1.217926 0.220002 -6.122936
v 2.141806 0.220002 -5.740252
v 1.650034 0.000002 -7.076620
v 2.546907 0.000002 -6.634332
v 1.650034 0.270002 -7.076620
v 2.546907 0.270002 -6.634332
v 2.143592 0.000002 -8.000002
v 3.009617 0.000002 -7.500001
v 2.143592 0.310002 -8.000002
v 3.009617 0.310002 -7.500001
v 2.696484 0.000002 -8.889126
v 3.527954 0.000002 -8.333555
v 2.696484 0.350002 -8.889126
v 3.527954 0.350002 -8.333555
v 3.306345 0.000004 -9.740185
v 4.099698 0.000002 -9.131424
v 3.306345 0.390004 -9.740185
v 4.099698 0.390002 -9.131424
v 3.970561 0.000004 -10.549536
v 4.722401 0.000004 -9.890190
v 3.970561 0.430004 -10.549536
v 4.722401 0.430004 -9.890190
v 4.686289 0.000004 -11.313711
v 5.393397 0.000004 -10.606606
v 4.686289 0.470004 -11.313711
v 5.393397 0.470004 -10.606606
v 5.450465 0.000004 -12.029440
v 6.109811 0.000004 -11.277601
v 5.450465 0.517636 -12.029440
v 6.109811 0.517636 -11.277601
v 6.259815 0.000004 -12.693657
v 6.868577 0.000004 -11.900305
v 6.259815 0.560004 -12.693657
v 6.868577 0.560004 -11.900305
v 7.110875 0.000004 -13.303518
v 7.666445 0.000004 -12.472050
v 7.110875 0.600004 -13.303518
v 7.666445 0.600004 -12.472050
v 7.999999 0.000004 -13.856411
v 8.499999 0.000004 -12.990387
v 7.999999 0.640004 -13.856411
v 8.499999 0.640004 -12.990387
v 8.923380 0.000004 -14.349968
v 9.365669 0.000004 -13.453098
v 8.923380 0.690004 -14.349968
v 9.365669 0.690004 -13.453098
v 9.877064 0.000004 -14.782076
v 10.259748 0.000004 -13.858200
v 9.877064 0.740004 -14.782076
v 10.259748 0.740004 -13.858200
v 10.856967 0.000004 -15.150885
v 11.178409 0.000004 -14.203959
v 10.856967 0.780004 -15.150885
v 11.178409 0.780004 -14.203959
v 11.858893 0.000006 -15.454815
v 12.117716 0.000004 -14.488894
v 11.858893 0.820005 -15.454815
v 12.117716 0.820004 -14.488894
v 12.878553 0.000006 -15.692566
v 13.073647 0.000004 -14.711786
v 12.878553 0.860006 -15.692566
v 13.073647 0.860004 -14.711786
v 13.911580 0.000006 -15.863119
v 14.042110 0.000004 -14.871679
v 13.911580 0.900006 -15.863119
v 14.042110 0.900004 -14.871679
v 14.953549 0.000006 -15.965744
v 15.018957 0.000004 -14.967890
v 14.953549 0.944423 -15.965744
v 15.018957 0.944421 -14.967890
v 15.999999 0.000006 -16.000002
v 16.000004 0.000004 -15.000006
v 15.999999 1.000006 -16.000002
v 16.000004 1.000005 -15.000006
vn -0.0010 0.9996 0.0295
vn 0.9995 -0.0000 0.0327
vn -0.9995 -0.0000 -0.0327
vn 0.9866 -0.0000 0.1629
vn 0.9952 -0.0000 0.0980
vn -0.9952 -0.0000 -0.0980
vn -0.0039 0.9992 0.0392
vn -0.0089 0.9992 0.0384
vn -0.9866 -0.0000 -0.1629
vn -0.0048 0.9996 0.0292
vn 0.9569 -0.0000 0.2903
vn 0.9739 -0.0000 0.2271
vn -0.9739 -0.0000 -0.2271
vn 0.9359 -0.0000 0.3523
vn -0.9569 -0.0000 -0.2903
vn -0.0114 0.9992 0.0377
vn -0.0203 0.9988 0.0448
vn -0.9359 -0.0000 -0.3522
vn -0.0139 0.9992 0.0369
vn 0.8819 -0.0000 0.4714
vn 0.9109 -0.0000 0.4127
vn -0.9109 -0.0000 -0.4127
vn -0.8492 -0.0000 -0.5281
vn -0.8819 -0.0000 -0.4714
vn -0.0186 0.9992 0.0348
vn -0.0230 0.9992 0.0320
vn -0.0208 0.9992 0.0335
vn 0.8492 -0.0000 0.5281
vn 0.7730 -0.0000 0.6344
vn 0.8128 -0.0000 0.5825
vn -0.8128 -0.0000 -0.5825
vn -0.0269 0.9992 0.0288
vn -0.7730 -0.0000 -0.6344
vn -0.0250 0.9992 0.0305
vn 0.7299 -0.0000 0.6836
vn -0.7299 -0.0000 -0.6836
vn 0.6344 -0.0000 0.7730
vn 0.6836 -0.0000 0.7299
vn -0.6836 -0.0000 -0.7299
vn -0.0342 0.9989 0.0321
vn -0.0320 0.9992 0.0230
vn -0.6344 -0.0000 -0.7730
vn -0.0323 0.9991 0.0265
vn 0.5281 -0.0000 0.8492
vn 0.5825 -0.0000 0.8128
vn -0.5825 -0.0000 -0.8128
vn 0.4714 -0.0000 0.8819
vn -0.5281 -0.0000 -0.8492
vn -0.0335 0.9992 0.0208
vn -0.0448 0.9988 0.0203
vn -0.4714 -0.0000 -0.8819
vn -0.0434 0.9988 0.0232
vn 0.3522 -0.0000 0.9359
vn 0.4127 -0.0000 0.9109
vn -0.4127 -0.0000 -0.9109
vn -0.2903 -0.0000 -0.9569
vn -0.3523 -0.0000 -0.9359
vn -0.0369 0.9992 0.0139
vn -0.0384 0.9992 0.0089
vn -0.0377 0.9992 0.0114
vn 0.2903 -0.0000 0.9569
vn 0.1629 -0.0000 0.9866
vn 0.2271 -0.0000 0.9739
vn -0.2271 -0.0000 -0.9739
vn -0.0435 0.9990 0.0043
vn -0.1629 -0.0000 -0.9866
vn -0.0389 0.9992 0.0064
vn 0.0980 -0.0000 0.9952
vn -0.0980 -0.0000 -0.9952
vn 1.0000 -0.0000 -0.0000
vn 0.0327 -0.0000 0.9995
vn -0.0327 -0.0000 -0.9995
vn -0.0547 0.9985 0.0018
vn -0.0000 -1.0000 -0.0000
vt 0.987694 0.007903
vt 0.999082 0.001632
vt 0.988848 0.009585
vt 0.000098 0.999902
vt 0.998913 0.002935
vt 0.999560 0.999046
vt 0.004586 0.009456
vt 0.994820 0.009456
vt 0.000000 0.000000
vt 0.011231 0.003575
vt 0.000000 0.000000
vt 0.996890 0.003575
vt 0.000098 0.000098
vt 0.004584 0.038729
vt 0.994818 0.038729
vt 0.000098 0.999902
vt 0.999559 0.000461
vt 0.011227 0.033474
vt 0.996886 0.033474
vt 0.999241 0.999068
vt 0.993391 0.009328
vt 0.010567 0.009328
vt 0.004751 0.003446
vt 0.997748 0.003446
vt 0.010557 0.077628
vt 0.000098 0.000098
vt 0.993382 0.077628
vt 0.000098 0.999902
vt 0.997737 0.073212
vt 0.004740 0.073212
vt 0.999241 0.000439
vt 0.999559 0.999046
vt 0.991564 0.009196
vt 0.009143 0.009196
vt 0.005617 0.003316
vt 0.998614 0.003316
vt 0.000098 0.999902
vt 0.009125 0.106767
vt 0.000098 0.000098
vt 0.991547 0.106767
vt 0.005602 0.102981
vt 0.999242 0.999069
vt 0.999559 0.000460
vt 0.998598 0.102981
vt 0.991683 0.009066
vt 0.007308 0.009066
vt 0.006479 0.003188
vt 0.998729 0.003188
vt 0.000098 0.000098
vt 0.007293 0.145664
vt 0.991668 0.145664
vt 0.000098 0.999902
vt 0.999242 0.000439
vt 0.998710 0.142719
vt 0.006460 0.142719
vt 0.999241 0.999068
vt 0.993360 0.008936
vt 0.007436 0.008936
vt 0.006598 0.003059
vt 0.997149 0.003059
vt 0.007413 0.184563
vt 0.000098 0.000098
vt 0.993337 0.184563
vt 0.000098 0.999902
vt 0.006574 0.182455
vt 0.997124 0.182455
vt 0.999241 0.000439
vt 0.999241 0.999068
vt 0.009106 0.008806
vt 0.993481 0.008806
vt 0.998930 0.002931
vt 0.005017 0.002931
vt 0.000098 0.999902
vt 0.009085 0.223462
vt 0.000098 0.000098
vt 0.993460 0.223462
vt 0.004987 0.222192
vt 0.998832 0.999098
vt 0.999241 0.000440
vt 0.998900 0.222192
vt 0.992063 0.008677
vt 0.009239 0.008677
vt 0.006799 0.002802
vt 0.992458 0.002802
vt 0.000098 0.000098
vt 0.009203 0.272117
vt 0.992027 0.272117
vt 0.000098 0.999902
vt 0.998832 0.000412
vt 0.992422 0.271894
vt 0.006763 0.271894
vt 0.999239 0.999068
vt 0.992184 0.008547
vt 0.007809 0.008547
vt 0.000332 0.002671
vt 0.994245 0.002671
vt 0.992150 0.311016
vt 0.007775 0.311016
vt 0.000098 0.000098
vt 0.000098 0.999902
vt 0.000289 0.311630
vt 0.999240 0.000441
vt 0.999241 0.999069
vt 0.994202 0.311630
vt 0.992254 0.008417
vt 0.007941 0.008417
vt 0.002114 0.002540
vt 0.995110 0.002540
vt 0.007899 0.349914
vt 0.000098 0.999902
vt 0.000098 0.000098
vt 0.992212 0.349914
vt 0.999242 0.999068
vt 0.999241 0.000439
vt 0.002066 0.351365
vt 0.995063 0.351365
vt 0.994781 0.008287
vt 0.008007 0.008287
vt 0.002981 0.002411
vt 0.993532 0.002411
vt 0.000098 0.000098
vt 0.007963 0.388811
vt 0.994737 0.388811
vt 0.000098 0.999902
vt 0.999241 0.000438
vt 0.993480 0.391100
vt 0.002929 0.391100
vt 0.999240 0.999069
vt 0.989927 0.008157
vt 0.010536 0.008157
vt 0.001405 0.002281
vt 0.996847 0.002281
vt 0.000098 0.999902
vt 0.010483 0.427709
vt 0.000098 0.000098
vt 0.989875 0.427709
vt 0.001346 0.430835
vt 0.999241 0.999068
vt 0.999240 0.000441
vt 0.996788 0.430835
vt 0.992451 0.008027
vt 0.005677 0.008027
vt 0.004717 0.002150
vt 0.994747 0.002150
vt 0.000098 0.000098
vt 0.005626 0.466607
vt 0.992400 0.466607
vt 0.000098 0.999902
vt 0.999241 0.000438
vt 0.004653 0.470569
vt 0.994684 0.470569
vt 0.998937 0.999085
vt 0.997444 0.007898
vt 0.008210 0.007898
vt 0.002620 0.002019
vt 0.996533 0.002019
vt 0.008148 0.512952
vt 0.000098 0.000098
vt 0.997382 0.512952
vt 0.000098 0.999902
vt 0.996464 0.517911
vt 0.002551 0.517911
vt 0.998937 0.000413
vt 0.999152 0.999073
vt 0.992589 0.007769
vt 0.013197 0.007769
vt 0.004407 0.001888
vt 0.994958 0.001888
vt 0.000098 0.999902
vt 0.013132 0.554161
vt 0.000099 0.000098
vt 0.992524 0.554161
vt 0.004331 0.560004
vt 0.999239 0.999067
vt 0.999152 0.000433
vt 0.994882 0.560004
vt 0.992658 0.007640
vt 0.008345 0.007640
vt 0.002832 0.001756
vt 0.993383 0.001756
vt 0.000099 0.000098
vt 0.008272 0.593058
vt 0.992585 0.593058
vt 0.000098 0.999902
vt 0.999238 0.000439
vt 0.993301 0.599740
vt 0.002751 0.599740
vt 0.999240 0.999068
vt 0.995188 0.007510
vt 0.008414 0.007510
vt 0.001256 0.001625
vt 0.997110 0.001625
vt 0.008339 0.631956
vt 0.000098 0.000098
vt 0.995113 0.631956
vt 0.000098 0.999902
vt 0.001170 0.639473
vt 0.997024 0.639473
vt 0.999240 0.000438
vt 0.998830 0.999091
vt 0.010945 0.007381
vt 0.992797 0.007381
vt 0.993088 0.001494
vt 0.004983 0.001494
vt 0.000098 0.999902
vt 0.010863 0.680613
vt 0.000098 0.000098
vt 0.992715 0.680613
vt 0.004890 0.689173
vt 0.998831 0.999090
vt 0.998830 0.000404
vt 0.992995 0.689173
vt 0.990407 0.007251
vt 0.008555 0.007251
vt 0.000962 0.001362
vt 0.992934 0.001362
vt 0.000098 0.000098
vt 0.008465 0.729268
vt 0.990318 0.729268
vt 0.000098 0.999902
vt 0.998831 0.000405
vt 0.992833 0.738873
vt 0.000861 0.738873
vt 0.999238 0.999062
vt 0.006164 0.007122
vt 0.992938 0.007122
vt 0.996251 0.001229
vt 0.000808 0.001229
vt 0.992847 0.768167
vt 0.006073 0.768167
vt 0.000098 0.000098
vt 0.000098 0.999902
vt 0.000700 0.778606
vt 0.999239 0.000432
vt 0.999237 0.999060
vt 0.996142 0.778606
vt 0.990547 0.006993
vt 0.008694 0.006993
vt 0.004124 0.001096
vt 0.996096 0.001096
vt 0.008597 0.807065
vt 0.000098 0.999902
vt 0.000098 0.000098
vt 0.990449 0.807065
vt 0.999236 0.999060
vt 0.999238 0.000431
vt 0.004010 0.818337
vt 0.995982 0.818337
vt 0.995333 0.006862
vt 0.006308 0.006862
vt 0.003968 0.000962
vt 0.996217 0.000962
vt 0.000098 0.000098
vt 0.006202 0.845963
vt 0.995228 0.845963
vt 0.000098 0.999902
vt 0.999236 0.000430
vt 0.996100 0.858068
vt 0.003851 0.858068
vt 0.999236 0.999062
vt 0.993510 0.006733
vt 0.011089 0.006733
vt 0.004093 0.000826
vt 0.995867 0.000826
vt 0.000099 0.999902
vt 0.010980 0.884861
vt 0.000098 0.000098
vt 0.993402 0.884861
vt 0.003969 0.897798
vt 0.999068 0.999070
vt 0.999236 0.000432
vt 0.995743 0.897798
vt 0.991688 0.006603
vt 0.009267 0.006603
vt 0.003741 0.000693
vt 0.995652 0.000693
vt 0.000098 0.000098
vt 0.009155 0.928067
vt 0.991577 0.928067
vt 0.000098 0.999902
vt 0.999068 0.000417
vt 0.003608 0.941931
vt 0.995519 0.941931
vt 0.998561 0.999106
vt 0.007447 0.006474
vt 0.000000 0.000000
vt 0.003527 0.000557
vt 1.000000 0.000000
vt 0.000000 1.000000
vt 0.007328 0.982171
vt 0.000098 0.000098
vt 1.000000 1.000000
vt 0.003386 0.997194
vt 0.998563 0.000383
s 0
f 4/6/1 8/17/1 7/13/1 3/4/1
f 2/2/2 6/10/2 8/18/2 4/5/2
f 3/3/3 7/14/3 5/7/3 1/1/3
f 10/24/4 14/35/4 16/41/4 12/29/4
f 6/12/5 10/23/5 12/30/5 8/19/5
f 7/15/6 11/25/6 9/22/6 5/8/6
f 8/20/7 12/31/7 11/26/7 7/16/7
f 16/42/8 20/53/8 19/49/8 15/37/8
f 11/27/9 15/38/9 13/34/9 9/21/9
f 12/32/10 16/43/10 15/39/10 11/28/10
f 18/48/11 22/59/11 24/65/11 20/54/11
f 14/36/12 18/47/12 20/55/12 16/44/12
f 15/40/13 19/50/13 17/46/13 13/33/13
f 22/60/14 26/72/14 28/77/14 24/66/14
f 19/51/15 23/61/15 21/58/15 17/45/15
f 20/56/16 24/67/16 23/62/16 19/52/16
f 28/78/17 32/89/17 31/85/17 27/73/17
f 23/63/18 27/74/18 25/69/18 21/57/18
f 24/68/19 28/79/19 27/75/19 23/64/19
f 30/84/20 34/95/20 36/101/20 32/90/20
f 26/71/21 30/83/21 32/91/21 28/80/21
f 27/76/22 31/86/22 29/82/22 25/70/22
f 35/97/23 39/109/23 37/106/23 33/93/23
f 31/87/24 35/98/24 33/94/24 29/81/24
f 32/92/25 36/102/25 35/99/25 31/88/25
f 40/113/26 44/125/26 43/121/26 39/110/26
f 36/103/27 40/114/27 39/111/27 35/100/27
f 34/96/28 38/107/28 40/115/28 36/104/28
f 42/120/29 46/131/29 48/137/29 44/126/29
f 38/108/30 42/119/30 44/127/30 40/116/30
f 39/112/31 43/122/31 41/118/31 37/105/31
f 48/138/32 52/149/32 51/145/32 47/133/32
f 43/123/33 47/134/33 45/130/33 41/117/33
f 44/128/34 48/139/34 47/135/34 43/124/34
f 46/132/35 50/143/35 52/150/35 48/140/35
f 47/136/36 51/146/36 49/142/36 45/129/36
f 54/156/37 58/167/37 60/173/37 56/161/37
f 50/144/38 54/155/38 56/162/38 52/151/38
f 51/147/39 55/157/39 53/154/39 49/141/39
f 52/152/40 56/163/40 55/158/40 51/148/40
f 60/174/41 64/185/41 63/181/41 59/169/41
f 55/159/42 59/170/42 57/166/42 53/153/42
f 56/164/43 60/175/43 59/171/43 55/160/43
f 62/180/44 66/191/44 68/197/44 64/186/44
f 58/168/45 62/179/45 64/187/45 60/176/45
f 59/172/46 63/182/46 61/178/46 57/165/46
f 66/192/47 70/204/47 72/209/47 68/198/47
f 63/183/48 67/193/48 65/190/48 61/177/48
f 64/188/49 68/199/49 67/194/49 63/184/49
f 72/210/50 76/221/50 75/217/50 71/205/50
f 67/195/51 71/206/51 69/201/51 65/189/51
f 68/200/52 72/211/52 71/207/52 67/196/52
f 74/216/53 78/228/53 80/233/53 76/222/53
f 70/203/54 74/215/54 76/223/54 72/212/54
f 71/208/55 75/218/55 73/214/55 69/202/55
f 79/229/56 83/241/56 81/238/56 77/226/56
f 75/219/57 79/230/57 77/225/57 73/213/57
f 76/224/58 80/234/58 79/231/58 75/220/58
f 84/245/59 88/257/59 87/253/59 83/242/59
f 80/235/60 84/246/60 83/243/60 79/232/60
f 78/227/61 82/239/61 84/247/61 80/236/61
f 86/252/62 90/263/62 92/269/62 88/258/62
f 82/240/63 86/251/63 88/259/63 84/248/63
f 83/244/64 87/254/64 85/250/64 81/237/64
f 92/270/65 96/281/65 95/277/65 91/265/65
f 87/255/66 91/266/66 89/262/66 85/249/66
f 88/260/67 92/271/67 91/267/67 87/256/67
f 90/264/68 94/275/68 96/282/68 92/272/68
f 91/268/69 95/278/69 93/274/69 89/261/69
f 97/286/70 99/289/70 100/292/70 98/288/70
f 94/276/71 98/287/71 100/293/71 96/283/71
f 95/279/72 99/290/72 97/285/72 93/273/72
f 96/284/73 100/294/73 99/291/73 95/280/73
f 5/9/74 6/11/74 4/6/74 3/4/74
f 9/22/74 10/23/74 6/12/74 5/9/74
f 13/34/74 14/35/74 10/24/74 9/22/74
f 17/46/74 18/47/74 14/36/74 13/34/74
f 21/58/74 22/59/74 18/48/74 17/46/74
f 25/69/74 26/72/74 22/60/74 21/58/74
f 30/83/74 26/72/74 25/70/74 29/82/74
f 33/94/74 34/95/74 30/84/74 29/82/74
f 37/106/74 38/107/74 34/96/74 33/94/74
f 41/118/74 42/119/74 38/108/74 37/106/74
f 45/130/74 46/131/74 42/120/74 41/118/74
f 49/142/74 50/143/74 46/132/74 45/130/74
f 53/154/74 54/155/74 50/144/74 49/142/74
f 57/166/74 58/167/74 54/156/74 53/154/74
f 61/178/74 62/179/74 58/168/74 57/166/74
f 65/190/74 66/191/74 62/180/74 61/178/74
f 69/201/74 70/204/74 66/192/74 65/190/74
f 74/215/74 70/204/74 69/202/74 73/214/74
f 77/225/74 78/228/74 74/216/74 73/214/74
f 82/239/74 78/228/74 77/226/74 81/238/74
f 85/250/74 86/251/74 82/240/74 81/238/74
f 89/262/74 90/263/74 86/252/74 85/250/74
f 93/274/74 94/275/74 90/264/74 89/262/74
f 97/286/74 98/288/74 94/276/74 93/274/74
