# Blender 3.4.1
# www.blender.org
mtllib ballast_curved_slope_very_large_l.mtl
o Plane.001
v 1.000000 0.000000 -0.000002
v 0.000000 0.000000 -0.000002
v 1.000000 0.000000 -0.000002
v 0.000000 0.000000 -0.000002
v 0.934379 0.052613 -1.084832
v -0.058330 0.052613 -0.964295
v 0.934379 0.000000 -1.084832
v -0.058330 0.000000 -0.964295
v 0.738475 0.124643 -2.153842
v -0.232467 0.124643 -1.914527
v 0.738475 0.000000 -2.153842
v -0.232467 0.000000 -1.914527
v 0.415145 0.199954 -3.191445
v -0.519872 0.199952 -2.836840
v 0.415145 0.000002 -3.191445
v -0.519872 0.000000 -2.836840
v -0.030898 0.274684 -4.182509
v -0.916354 0.274684 -3.717785
v -0.030898 0.000002 -4.182509
v -0.916354 0.000002 -3.717785
v -0.593148 0.362601 -5.112583
v -1.416131 0.362601 -4.544517
v -0.593148 0.000002 -5.112583
v -1.416131 0.000002 -4.544517
v -1.263406 0.432935 -5.968103
v -2.011916 0.432935 -5.304979
v -1.263406 0.000002 -5.968103
v -2.011916 0.000002 -5.304979
v -2.031899 0.507665 -6.736595
v -2.695021 0.507665 -5.988083
v -2.031899 0.000002 -6.736595
v -2.695021 0.000002 -5.988083
v -2.887420 0.584905 -7.406852
v -3.455484 0.584905 -6.583868
v -2.887420 0.000002 -7.406852
v -3.455484 0.000002 -6.583868
v -3.817494 0.659322 -7.969101
v -4.282217 0.659322 -7.083644
v -3.817494 0.000002 -7.969101
v -4.282217 0.000002 -7.083644
v -4.808558 0.751636 -8.415142
v -5.163163 0.751636 -7.480125
v -4.808558 0.000002 -8.415142
v -5.163163 0.000002 -7.480125
v -5.846161 0.825999 -8.738472
v -6.085476 0.825999 -7.767529
v -5.846161 0.000002 -8.738472
v -6.085476 0.000002 -7.767529
v -6.915172 0.906590 -8.934375
v -7.035707 0.906590 -7.941665
v -6.915172 0.000002 -8.934375
v -7.035707 0.000002 -7.941665
v -8.000002 1.000002 -8.999994
v -8.000000 1.000002 -7.999994
v -8.000002 0.000002 -8.999994
v -8.000000 0.000002 -7.999994
vn 0.9836 -0.0000 -0.1803
vn -0.9982 -0.0000 0.0604
vn 0.9982 -0.0000 -0.0604
vn 0.0031 0.9987 0.0511
vn 0.0126 0.9975 0.0689
vn -0.9836 -0.0000 0.1803
vn -0.9119 -0.0000 0.4104
vn 0.0218 0.9973 0.0699
vn -0.9547 -0.0000 0.2975
vn 0.9547 -0.0000 -0.2975
vn 0.9119 -0.0000 -0.4104
vn 0.0298 0.9974 0.0662
vn 0.0422 0.9977 0.0538
vn 0.0441 0.9964 0.0730
vn -0.8558 -0.0000 0.5173
vn 0.8558 -0.0000 -0.5173
vn -0.7071 -0.0000 0.7071
vn -0.7872 -0.0000 0.6167
vn 0.7872 -0.0000 -0.6167
vn 0.7071 -0.0000 -0.7071
vn 0.0513 0.9974 0.0513
vn -0.5173 -0.0000 0.8558
vn 0.0591 0.9972 0.0463
vn -0.6167 -0.0000 0.7872
vn 0.6167 -0.0000 -0.7872
vn -0.4104 -0.0000 0.9119
vn 0.5173 -0.0000 -0.8558
vn 0.0619 0.9974 0.0374
vn 0.4104 -0.0000 -0.9119
vn 0.0817 0.9960 0.0368
vn -0.1803 -0.0000 0.9836
vn 0.0690 0.9974 0.0215
vn -0.2975 -0.0000 0.9547
vn 0.2975 -0.0000 -0.9547
vn 0.0604 -0.0000 -0.9982
vn 0.1803 -0.0000 -0.9836
vn 0.0770 0.9969 0.0141
vn -1.0000 -0.0000 -0.0000
vn 0.0905 0.9959 0.0055
vn -0.0604 -0.0000 0.9982
vn -0.0000 -1.0000 -0.0000
vt 0.974777 0.011605
vt 0.997372 0.997849
vt 1.000264 0.030646
vt 0.003515 0.999055
vt 0.969444 0.003067
vt 0.996498 0.022491
vt 0.993193 0.063177
vt -0.011334 0.063177
vt 0.997372 0.003978
vt 0.996440 0.997849
vt 0.012871 0.080663
vt 0.003514 0.003092
vt 0.003515 0.999181
vt 0.997961 0.080663
vt 0.001346 0.001881
vt 0.995548 0.001881
vt 0.010307 0.028043
vt 0.995398 0.028043
vt 0.005042 0.134441
vt 0.996440 0.003978
vt 0.996255 0.997849
vt 0.990967 0.134441
vt 0.003514 0.002949
vt 0.010517 0.150042
vt 0.003516 0.999207
vt 0.999493 0.150042
vt 0.004618 0.010151
vt 0.980408 0.010151
vt 0.008141 0.025613
vt 0.997117 0.025613
vt 0.996255 0.003978
vt 0.004969 0.207277
vt 0.990894 0.207277
vt 0.996288 0.997849
vt 0.997132 0.222691
vt 0.003514 0.002922
vt 0.012042 0.222691
vt 0.003516 0.999202
vt 0.001956 0.003042
vt 0.977747 0.003042
vt 0.009861 0.023183
vt 0.994951 0.023183
vt 0.001019 0.282634
vt 0.996288 0.003978
vt 0.995465 0.997849
vt 0.993145 0.282634
vt 0.009685 0.294763
vt 0.003514 0.002927
vt 0.003516 0.999314
vt 0.996229 0.294763
vt 0.001737 0.003161
vt 0.983665 0.003161
vt 0.007698 0.020754
vt 0.994242 0.020754
vt 0.996534 0.997849
vt 0.995465 0.003978
vt -0.007855 0.373871
vt 0.996672 0.373871
vt 0.003516 0.999169
vt 0.003514 0.002801
vt 0.008747 0.379983
vt 0.997261 0.379983
vt 0.001106 0.003128
vt 0.995308 0.003128
vt 0.006989 0.018324
vt 0.995502 0.018324
vt 0.996534 0.003978
vt 0.004747 0.439028
vt 0.990671 0.439028
vt 0.996288 0.997849
vt 0.003514 0.002964
vt 0.989028 0.447671
vt 0.009828 0.447671
vt 0.003516 0.999203
vt 0.004531 0.006940
vt 0.980322 0.006940
vt 0.008251 0.015894
vt 0.987451 0.015894
vt 0.003113 0.513224
vt 0.996288 0.003978
vt 0.996142 0.997849
vt 0.998627 0.513224
vt 0.001581 0.519742
vt 0.003514 0.002927
vt 0.003515 0.999223
vt 0.996386 0.519742
vt 0.001418 0.002140
vt 0.991139 0.002140
vt 0.000196 0.013465
vt 0.995002 0.013465
vt 0.996142 0.003978
vt 0.006279 0.589150
vt 0.992204 0.589150
vt 0.994596 0.996185
vt 0.994362 0.594315
vt 0.003514 0.002904
vt 0.008932 0.594315
vt 0.001806 0.997323
vt 0.006149 0.005336
vt 0.981939 0.005336
vt 0.007749 0.011035
vt 0.993179 0.011035
vt 0.000008 0.662647
vt 0.994598 0.002314
vt 0.996102 0.662647
vt 0.995162 0.997849
vt 0.006916 0.666075
vt 0.992007 0.666075
vt 0.001806 0.001053
vt 0.003517 0.999356
vt 0.001059 0.002073
vt 0.986914 0.002073
vt 0.005927 0.008605
vt 0.991017 0.008605
vt 0.003894 0.754009
vt 0.995162 0.003978
vt 0.994595 0.996185
vt 0.995590 0.754009
vt 0.004514 0.755679
vt 0.003514 0.002754
vt 0.001801 0.997322
vt 0.990576 0.755679
vt 0.003902 0.003732
vt 0.985404 0.003732
vt 0.003763 0.006176
vt 0.989825 0.006176
vt 0.994598 0.002314
vt 0.003394 0.827452
vt 0.992629 0.827452
vt 0.994597 0.996185
vt 0.989676 0.827385
vt 0.001801 0.001052
vt 0.003132 0.827385
vt 0.002173 0.997373
vt 0.003456 0.002929
vt 0.982523 0.002929
vt 0.002572 0.003747
vt 0.989116 0.003747
vt 0.992617 0.907110
vt 0.000430 0.907110
vt 0.994598 0.002314
vt 0.995084 0.997849
vt 0.002215 0.905300
vt 0.002173 0.000997
vt 0.003514 0.999424
vt 0.988759 0.908068
vt 0.000576 0.002127
vt 0.982565 0.002127
vt 0.001864 0.001317
vt 0.988408 0.004085
vt 0.000410 0.999570
vt 0.000100 0.000100
vt 0.995084 0.003978
vt 0.999900 0.000100
vt 0.003517 0.002801
vt 0.001272 0.998767
vt 0.000626 0.001322
vt 0.000100 0.999900
vt 0.001163 0.001656
vt 0.999900 0.999900
s 0
f 7/16/1 11/27/1 9/19/1 5/7/1
f 2/3/2 6/11/2 8/17/2 4/6/2
f 3/5/3 7/15/3 5/8/3 1/1/3
f 1/2/4 5/9/4 6/12/4 2/4/4
f 5/10/5 9/20/5 10/23/5 6/13/5
f 6/14/6 10/24/6 12/29/6 8/18/6
f 14/35/7 18/47/7 20/53/7 16/42/7
f 9/21/8 13/31/8 14/36/8 10/25/8
f 10/26/9 14/37/9 16/41/9 12/30/9
f 11/28/10 15/39/10 13/32/10 9/22/10
f 15/40/11 19/51/11 17/43/11 13/33/11
f 13/34/12 17/44/12 18/48/12 14/38/12
f 21/55/13 25/67/13 26/71/13 22/59/13
f 17/45/14 21/56/14 22/60/14 18/49/14
f 18/50/15 22/61/15 24/65/15 20/54/15
f 19/52/16 23/63/16 21/57/16 17/46/16
f 26/72/17 30/83/17 32/89/17 28/78/17
f 22/62/18 26/73/18 28/77/18 24/66/18
f 23/64/19 27/75/19 25/68/19 21/58/19
f 27/76/20 31/87/20 29/79/20 25/69/20
f 25/70/21 29/80/21 30/84/21 26/74/21
f 34/95/22 38/107/22 40/113/22 36/102/22
f 29/81/23 33/91/23 34/96/23 30/85/23
f 30/86/24 34/97/24 36/101/24 32/90/24
f 31/88/25 35/99/25 33/92/25 29/82/25
f 38/108/26 42/119/26 44/125/26 40/114/26
f 35/100/27 39/111/27 37/103/27 33/93/27
f 33/94/28 37/104/28 38/109/28 34/98/28
f 39/112/29 43/123/29 41/115/29 37/105/29
f 37/106/30 41/116/30 42/120/30 38/110/30
f 46/131/31 50/143/31 52/149/31 48/138/31
f 41/117/32 45/127/32 46/132/32 42/121/32
f 42/122/33 46/133/33 48/137/33 44/126/33
f 43/124/34 47/135/34 45/128/34 41/118/34
f 51/148/35 55/157/35 53/151/35 49/139/35
f 47/136/36 51/147/36 49/140/36 45/129/36
f 45/130/37 49/141/37 50/144/37 46/134/37
f 53/152/38 55/158/38 56/160/38 54/154/38
f 49/142/39 53/153/39 54/155/39 50/145/39
f 50/146/40 54/156/40 56/159/40 52/150/40
f 55/158/41 51/148/41 52/150/41 56/160/41
f 52/150/41 51/148/41 47/136/41 48/138/41
f 47/136/41 43/124/41 44/126/41 48/138/41
f 43/124/41 39/112/41 40/114/41 44/126/41
f 39/112/41 35/100/41 36/102/41 40/114/41
f 35/100/41 31/88/41 32/90/41 36/102/41
f 31/88/41 27/76/41 28/78/41 32/90/41
f 27/76/41 23/64/41 24/66/41 28/78/41
f 23/64/41 19/52/41 20/54/41 24/66/41
f 19/52/41 15/40/41 16/42/41 20/54/41
f 15/40/41 11/28/41 12/30/41 16/42/41
f 11/28/41 7/16/41 8/18/41 12/30/41
f 8/18/41 7/16/41 3/5/41 4/6/41
