# WaveFront *.obj file (generated by CINEMA 4D)

g supports_ballast_long
v -0.5 -0.0010000000475 -5.49897575378418
v -0.5 0.50171840190887 -5.49897575378418
v 0.5 -0.0010000000475 -5.49897575378418
v 0.5 0.50062733888626 -5.49897575378418
v 0.5 -0.00495378626511 -6.49897575378418
v 0.5 0.58457785844803 -6.49897575378418
v -0.5 -0.0010000000475 -6.49897575378418
v -0.5 0.5844794511795 -6.49897575378418
v -0.5 0.58516144752502 -6.49897575378418
v 0.5 0.58516144752502 -6.49897575378418
v 0.5 -0.0010000000475 -7.49897575378418
v 0.5 0.66590911149979 -7.49897575378418
v -0.5 -0.0010000000475 -7.49897575378418
v -0.5 0.66641062498093 -7.49897575378418
v -0.5 0.66662567853928 -7.49897575378418
v 0.5 0.66662567853928 -7.49897575378418
v 0.5 -0.0010000000475 -8.49897575378418
v 0.5 0.74930679798126 -8.49897575378418
v -0.5 -0.0010000000475 -8.49897575378418
v -0.5 0.74929755926132 -8.49897575378418
v -0.5 0.74930077791214 -8.49897575378418
v 0.5 0.7492915391922 -8.49897575378418
v 0.5 -0.0010000000475 -9.49897575378418
v 0.5 0.83204615116119 -9.49897575378418
v -0.5 -0.0010000000475 -9.49897575378418
v -0.5 0.83179318904877 -9.49897575378418
v -0.5 0.8320871591568 -9.49897575378418
v 0.5 0.83183419704437 -9.49897575378418
v 0.5 -0.0010000000475 -10.49897575378418
v 0.5 0.91616559028625 -10.49897575378418
v -0.5 -0.0010000000475 -10.49897575378418
v -0.5 0.91484749317169 -10.49897575378418
v -0.5 0.91662311553955 -10.49897575378418
v 0.5 0.91576498746872 -10.49897575378418
v 0.5 -0.0010000000475 -11.49997615814209
v 0.5 0.99036413431168 -11.49997615814209
v -0.5 -0.0010000000475 -11.49997615814209
v -0.5 0.99036413431168 -11.49997615814209
v -0.5 -0.0010000000475 0.5
v -0.5 0.0030469999183 0.5
v 0.5 -0.0010000000475 0.5
v 0.5 0.0030469999183 0.5
v 0.5 -0.0010000000475 -0.5
v 0.5 0.08644342422485 -0.5
v -0.5 -0.0010000000475 -0.5
v -0.5 0.08644342422485 -0.5
v -0.5 0.08609475940466 -0.5
v 0.5 0.08609475940466 -0.5
v 0.5 -0.0010000000475 -1.5
v 0.5 0.16829004883766 -1.5
v -0.5 -0.0010000000475 -1.5
v -0.5 0.16829004883766 -1.5
v -0.5 0.16853439807892 -1.5
v 0.5 0.16853439807892 -1.5
v 0.5 -0.0010000000475 -2.5
v 0.5 0.25209519267082 -2.5
v -0.5 -0.0010000000475 -2.5
v -0.5 0.25209519267082 -2.5
v -0.5 0.25239577889442 -2.5
v 0.5 0.25239577889442 -2.5
v 0.5 -0.0010000000475 -3.5
v 0.5 0.33388099074364 -3.5
v -0.5 -0.0010000000475 -3.5
v -0.5 0.33388099074364 -3.5
v -0.5 0.33398869633675 -3.5
v 0.5 0.33398869633675 -3.5
v 0.5 -0.0010000000475 -4.5
v 0.5 0.41686069965363 -4.5
v -0.5 -0.0010000000475 -4.5
v -0.5 0.41686069965363 -4.5
v -0.5 0.41726335883141 -4.5
v 0.5 0.41726335883141 -4.5
v 0.5 -0.0010000000475 -5.5
v 0.5 0.50019133090973 -5.5
v -0.5 -0.0010000000475 -5.5
v -0.5 0.50019133090973 -5.5
# 76 vertices

vn 0 0 1
vn 1 0 0
vn 0 -1 0
vn -1 0 0
vn 0 0.98651695251465 0.163659080863
vn 0 0 -1
vn 0 0.98626184463501 0.16518948972225
# 7 normals

vt 0 0 0
vt 0 1 0
vt 1 1 0
vt 0.99875068664551 0.00062465667725 0
vt -0.99655342102051 -0.00111198425293 0
vt -0.99849987030029 0.5013952255249 0
vt 0.0004940032959 0.57827281951904 0
vt 0.002197265625 -0.00048732757568 0
vt 1.00218963623047 -0.00063323974609 0
vt 1.00024318695068 0.57841682434082 0
vt 1.99923706054688 0.49942016601562 0
vt 2.00094032287598 -0.00000858306885 0
vt -1.0003490447998 -0.00212001800537 0
vt -1.00034332275391 0.58696556091309 0
vt 0.00215148925781 0.66473388671875 0
vt -0.0015983581543 -0.00149536132812 0
vt 0.99839401245117 -0.00164127349854 0
vt 0.99839973449707 0.663987159729 0
vt 1.9983959197998 0.57963466644287 0
vt 1.99714469909668 -0.00101661682129 0
vt -0.99798440933228 0.00176811218262 0
vt -0.99954652786255 0.67528629302979 0
vt -0.00017118453979 0.75274085998535 0
vt 0.00076627731323 0.00239276885986 0
vt 1.00075852870941 0.00224685668945 0
vt 0.99919641017914 0.7523078918457 0
vt 1.99919652938843 0.66951560974121 0
vt 1.99950933456421 0.0028715133667 0
vt -1.00117492675781 -0.0007438659668 0
vt -1.00117683410645 0.75238227844238 0
vt -0.00055313110352 0.83012676239014 0
vt -0.0024242401123 -0.00011920928955 0
vt 0.99756813049316 -0.00026512145996 0
vt 0.99756622314453 0.8294038772583 0
vt 1.99756526947021 0.75127410888672 0
vt 1.99631881713867 0.00035953521729 0
vt -0.99906921386719 -0.00119686126709 0
vt -0.99907493591309 0.83475399017334 0
vt 0.00062084197998 0.90939521789551 0
vt -0.00031852722168 -0.00057220458984 0
vt 0.99875211715698 -0.0005898475647 0
vt 0.99874639511108 0.9169008731842 0
vt 1.99907088279724 0.82783055305481 0
vt 1.99812769889832 -0.0005898475647 0
vt -1.0004460811615 -0.00301694869995 0
vt -0.99953842163086 0.91025352478027 0
vt -0.00067257881165 0.98741030693054 0
vt -0.00044631958008 -0.00301694869995 0
vt 1 0 0
vt 0.99829697608948 -0.00253820419312 0
vt 0.99920475482941 0.98727512359619 0
vt 1.99869513511658 0.91855216026306 0
vt 1.9982967376709 -0.00253820419312 0
vt -0.99789428710938 0.00074768066406 1
vt -0.99794340133667 0.00789141654968 0
vt 0.00118684768677 0.07861042022705 0
vt 0.00034427642822 0.00196838378906 1
vt 1.00100708007812 0.00103759765625 1
vt 1.00079965591431 0.0849130153656 0
vt 2.00055456161499 0.00975227355957 0
vt 1.99932861328125 0.00225830078125 1
vt -1.00039672851562 0.00050354003906 1
vt -1.00193166732788 0.09159541130066 0
vt -0.00155210494995 0.15297102928162 0
vt -0.00202083587646 0.00172424316406 1
vt 0.99847412109375 0.00079345703125 1
vt 0.99681150913239 0.16861701011658 0
vt 1.99781560897827 0.08411288261414 0
vt 1.9969482421875 0.00201416015625 1
vt -0.99948120117188 -0.00039672851562 1
vt -0.9994969367981 0.17195677757263 0
vt -0.00067949295044 0.23768019676208 0
vt -0.00110530853271 0.00080871582031 1
vt 0.9993896484375 -0.0001220703125 1
vt 0.99924623966217 0.24897837638855 0
vt 1.99868822097778 0.1688220500946 0
vt 1.99786376953125 0.0010986328125 1
vt -0.99868774414062 -0.00045776367188 1
vt -0.99947500228882 0.25525450706482 0
vt -0.00081396102905 0.32667899131775 0
vt -0.00032711029053 0.00074768066406 1
vt 1.00021362304688 -0.00015258789062 1
vt 0.99926817417145 0.33227610588074 0
vt 2.00011587142944 0.25157237052917 0
vt 1.9986572265625 0.00106811523438 1
vt -1.00045776367188 0.00019836425781 1
vt -1.00050115585327 0.34502291679382 0
vt -0.00168371200562 0.41085124015808 0
vt -0.00202083587646 0.00141906738281 1
vt 0.9984130859375 0.00051879882812 1
vt 0.99824202060699 0.42204451560974 0
vt 1.99768400192261 0.33288073539734 0
vt 1.99688720703125 0.00173950195312 1
vt -1.00039672851562 -0.00100708007812 1
vt -1.00043058395386 0.4217803478241 0
vt -0.00098848342896 0.49395060539246 0
vt -0.00195980072021 0.00019836425781 1
vt 0.99847412109375 -0.00070190429688 1
vt 0.99831259250641 0.49880194664001 0
vt 1.99837923049927 0.42196822166443 0
vt 1.9969482421875 0.00051879882812 1
# 101 texture coordinates

f 3/4/1 4/3/1 2/2/1 1/1/1
f 5/8/2 6/7/2 4/6/2 3/5/2
f 5/4/3 3/3/3 1/2/3 7/1/3
f 1/12/4 2/11/4 8/10/4 7/9/4
f 4/4/5 6/3/5 8/2/5 2/1/5
f 10/4/5 12/3/5 14/2/5 9/1/5
f 11/16/2 12/15/2 10/14/2 5/13/2
f 11/4/3 5/3/3 7/2/3 13/1/3
f 7/20/4 9/19/4 14/18/4 13/17/4
f 16/4/5 18/3/5 20/2/5 15/1/5
f 17/24/2 18/23/2 16/22/2 11/21/2
f 17/4/3 11/3/3 13/2/3 19/1/3
f 13/28/4 15/27/4 20/26/4 19/25/4
f 22/4/5 24/3/5 26/2/5 21/1/5
f 23/32/2 24/31/2 22/30/2 17/29/2
f 23/4/3 17/3/3 19/2/3 25/1/3
f 19/36/4 21/35/4 26/34/4 25/33/4
f 29/4/3 23/3/3 25/2/3 31/1/3
f 29/40/2 30/39/2 28/38/2 23/37/2
f 28/4/5 30/3/5 32/2/5 27/1/5
f 25/44/4 27/43/4 32/42/4 31/41/4
f 35/4/3 29/3/3 31/2/3 37/1/3
f 35/48/2 36/47/2 34/46/2 29/45/2
f 37/49/6 38/3/6 36/2/6 35/1/6
f 31/53/4 33/52/4 38/51/4 37/50/4
f 34/4/7 36/3/7 38/2/7 33/1/7
f 41/4/1 42/3/1 40/2/1 39/1/1
f 43/57/2 44/56/2 42/55/2 41/54/2
f 43/4/3 41/3/3 39/2/3 45/1/3
f 39/61/4 40/60/4 46/59/4 45/58/4
f 42/4/5 44/3/5 46/2/5 40/1/5
f 48/4/5 50/3/5 52/2/5 47/1/5
f 49/65/2 50/64/2 48/63/2 43/62/2
f 49/4/3 43/3/3 45/2/3 51/1/3
f 45/69/4 47/68/4 52/67/4 51/66/4
f 54/4/5 56/3/5 58/2/5 53/1/5
f 55/73/2 56/72/2 54/71/2 49/70/2
f 55/4/3 49/3/3 51/2/3 57/1/3
f 51/77/4 53/76/4 58/75/4 57/74/4
f 60/4/5 62/3/5 64/2/5 59/1/5
f 61/81/2 62/80/2 60/79/2 55/78/2
f 61/4/3 55/3/3 57/2/3 63/1/3
f 57/85/4 59/84/4 64/83/4 63/82/4
f 67/4/3 61/3/3 63/2/3 69/1/3
f 67/89/2 68/88/2 66/87/2 61/86/2
f 66/4/5 68/3/5 70/2/5 65/1/5
f 63/93/4 65/92/4 70/91/4 69/90/4
f 73/4/3 67/3/3 69/2/3 75/1/3
f 73/97/2 74/96/2 72/95/2 67/94/2
f 75/4/6 76/3/6 74/2/6 73/1/6
f 69/101/4 71/100/4 76/99/4 75/98/4
f 72/4/7 74/3/7 76/2/7 71/1/7

