# Blender 4.0.1
# www.blender.org
mtllib track_curve_1x.mtl
o track_normal.001
v -0.228350 0.070829 0.083682
v -0.198446 0.085048 0.100162
v -0.198446 0.070829 0.100162
v -0.206884 0.070829 0.095512
v -0.236787 0.070829 0.079032
v -0.236787 0.085048 0.079032
v -0.191343 0.025048 0.104077
v -0.243891 0.025048 0.075117
v -0.243891 0.040534 0.075117
v -0.228350 0.040534 0.083682
v -0.206884 0.040534 0.095512
v -0.191343 0.040534 0.104077
v -0.360458 0.025048 0.497671
v -0.360458 0.040534 0.497671
v -0.318204 0.040534 0.497785
v -0.342714 0.040534 0.497719
v -0.300459 0.025048 0.497832
v -0.300459 0.040534 0.497832
v -0.342714 0.070829 0.497719
v -0.318204 0.070829 0.497785
v -0.308570 0.070829 0.497810
v -0.308570 0.085048 0.497810
v -0.352347 0.085048 0.497693
v -0.352347 0.070829 0.497693
v 0.332082 0.070829 0.408046
v 0.332082 0.085048 0.408046
v 0.361986 0.070829 0.424526
v 0.340520 0.070829 0.412696
v 0.370424 0.085048 0.429176
v 0.370424 0.070829 0.429176
v 0.377527 0.040534 0.433091
v 0.377527 0.025048 0.433091
v 0.340520 0.040534 0.412696
v 0.361986 0.040534 0.424526
v 0.324979 0.025048 0.404131
v 0.324979 0.040534 0.404131
v 0.360493 0.025048 0.499603
v 0.360493 0.040534 0.499603
v 0.300493 0.025048 0.499442
v 0.318238 0.040534 0.499490
v 0.300493 0.040534 0.499442
v 0.342748 0.040534 0.499556
v 0.352382 0.070829 0.499582
v 0.352382 0.085048 0.499581
v 0.318238 0.070829 0.499490
v 0.342748 0.070829 0.499556
v 0.308604 0.085048 0.499464
v 0.308604 0.070829 0.499464
v 0.296227 -0.026034 0.440712
v 0.296227 0.053966 0.440712
v 0.325039 0.053966 0.449071
v 0.325039 -0.026034 0.449071
v 0.293084 -0.026034 0.452906
v 0.293084 0.053966 0.452906
v 0.322348 -0.026034 0.459510
v 0.322348 0.053966 0.459510
v -0.285517 0.053966 0.271930
v -0.256705 0.053966 0.280289
v -0.256705 -0.026034 0.280289
v -0.285517 -0.026034 0.271929
v -0.268531 0.053966 0.326185
v -0.268531 -0.026034 0.326185
v -0.297796 0.053966 0.319582
v -0.297796 -0.026034 0.319582
v -0.396145 -0.030755 0.128551
v -0.396145 0.029245 0.128551
v 0.472114 0.029245 0.488726
v 0.472114 -0.030755 0.488726
v -0.463908 -0.030755 0.391427
v -0.463908 0.029245 0.391427
v 0.470248 -0.030755 0.496085
v 0.470248 0.029245 0.496085
v 0.085390 0.070829 -0.233607
v 0.102774 0.085048 -0.204220
v 0.102774 0.070829 -0.204220
v 0.097869 0.070829 -0.212512
v 0.080485 0.070829 -0.241899
v 0.080485 0.085048 -0.241899
v 0.106903 0.025048 -0.197239
v 0.076355 0.025048 -0.248880
v 0.076355 0.040534 -0.248880
v 0.085390 0.040534 -0.233607
v 0.097869 0.040534 -0.212512
v 0.106903 0.040534 -0.197239
v -0.243887 0.025048 0.074993
v -0.243887 0.040534 0.074993
v -0.207616 0.040534 0.096671
v -0.228655 0.040534 0.084096
v -0.192385 0.025048 0.105775
v -0.192385 0.040534 0.105775
v -0.228655 0.070829 0.084096
v -0.207616 0.070829 0.096671
v -0.199347 0.070829 0.101614
v -0.199347 0.085048 0.101614
v -0.236925 0.085048 0.079154
v -0.236925 0.070829 0.079154
v 0.402998 0.070829 0.334977
v 0.402998 0.085048 0.334977
v 0.420382 0.070829 0.364364
v 0.407903 0.070829 0.343268
v 0.425287 0.085048 0.372656
v 0.425287 0.070829 0.372656
v 0.429416 0.040534 0.379637
v 0.429416 0.025048 0.379637
v 0.407903 0.040534 0.343268
v 0.420382 0.040534 0.364364
v 0.398868 0.025048 0.327995
v 0.398868 0.040534 0.327996
v 0.379956 0.025048 0.428869
v 0.379956 0.040534 0.428869
v 0.328454 0.025048 0.398087
v 0.343686 0.040534 0.407191
v 0.328454 0.040534 0.398087
v 0.364724 0.040534 0.419765
v 0.372994 0.070829 0.424708
v 0.372994 0.085048 0.424708
v 0.343686 0.070829 0.407191
v 0.364724 0.070829 0.419765
v 0.335416 0.085048 0.402248
v 0.335416 0.070829 0.402248
v 0.355013 -0.026034 0.345247
v 0.355013 0.053966 0.345247
v 0.375536 0.053966 0.367130
v 0.375536 -0.026034 0.367130
v 0.345904 -0.026034 0.354296
v 0.345904 0.053966 0.354296
v 0.367694 -0.026034 0.374917
v 0.367694 0.053966 0.374917
v -0.059357 0.053966 -0.096579
v -0.038835 0.053966 -0.074697
v -0.038835 -0.026034 -0.074697
v -0.059357 -0.026034 -0.096579
v -0.072259 0.053966 -0.041442
v -0.072259 -0.026034 -0.041442
v -0.094049 0.053966 -0.062063
v -0.094049 -0.026034 -0.062063
v -0.082004 -0.030755 -0.275972
v -0.082004 0.029245 -0.275972
v 0.482338 0.029245 0.475771
v 0.482338 -0.030755 0.475771
v -0.273310 -0.030755 -0.085503
v -0.273310 0.029245 -0.085503
v 0.475874 -0.030755 0.482232
v 0.475874 0.029245 0.482232
v 0.501521 0.070829 -0.342720
v 0.501460 0.085048 -0.308576
v 0.501460 0.070829 -0.308576
v 0.501477 0.070829 -0.318210
v 0.501538 0.070829 -0.352354
v 0.501538 0.085048 -0.352354
v 0.501446 0.025048 -0.300465
v 0.501553 0.025048 -0.360465
v 0.501553 0.040534 -0.360465
v 0.501521 0.040534 -0.342720
v 0.501477 0.040534 -0.318210
v 0.501446 0.040534 -0.300465
v 0.075538 0.025048 -0.248788
v 0.075538 0.040534 -0.248788
v 0.095764 0.040534 -0.211688
v 0.084032 0.040534 -0.233208
v 0.104258 0.025048 -0.196108
v 0.104258 0.040534 -0.196108
v 0.084032 0.070829 -0.233208
v 0.095764 0.070829 -0.211688
v 0.100375 0.070829 -0.203230
v 0.100375 0.085048 -0.203230
v 0.079420 0.085048 -0.241666
v 0.079420 0.070829 -0.241666
v 0.500357 0.070829 0.308599
v 0.500357 0.085048 0.308599
v 0.500296 0.070829 0.342743
v 0.500340 0.070829 0.318233
v 0.500278 0.085048 0.352377
v 0.500278 0.070829 0.352377
v 0.500264 0.040534 0.360488
v 0.500264 0.025048 0.360488
v 0.500340 0.040534 0.318233
v 0.500296 0.040534 0.342743
v 0.500371 0.025048 0.300488
v 0.500371 0.040534 0.300488
v 0.433635 0.025048 0.377207
v 0.433635 0.040534 0.377207
v 0.404915 0.025048 0.324527
v 0.413409 0.040534 0.340107
v 0.404915 0.040534 0.324527
v 0.425141 0.040534 0.361627
v 0.429753 0.070829 0.370085
v 0.429753 0.085048 0.370085
v 0.413409 0.070829 0.340107
v 0.425142 0.070829 0.361627
v 0.408798 0.085048 0.331648
v 0.408798 0.070829 0.331648
v 0.453841 -0.026034 0.292887
v 0.453841 0.053966 0.292887
v 0.460311 0.053966 0.322181
v 0.460311 -0.026034 0.322181
v 0.441622 -0.026034 0.295944
v 0.441622 0.053966 0.295944
v 0.449849 -0.026034 0.324794
v 0.449849 0.053966 0.324794
v 0.323219 0.053966 -0.298596
v 0.329688 0.053966 -0.269301
v 0.329688 -0.026034 -0.269301
v 0.323219 -0.026034 -0.298596
v 0.283732 0.053966 -0.257717
v 0.283732 -0.026034 -0.257717
v 0.275505 0.053966 -0.286567
v 0.275505 -0.026034 -0.286567
v 0.395803 -0.030755 -0.464399
v 0.395803 0.029245 -0.464399
v 0.496223 0.029245 0.470222
v 0.496223 -0.030755 0.470222
v 0.132640 -0.030755 -0.397823
v 0.132640 0.029245 -0.397823
v 0.488842 -0.030755 0.472074
v 0.488842 0.029245 0.472074
vn 0.4827 -0.0000 -0.8758
vn -0.9640 -0.0000 -0.2659
vn -0.0027 -0.0000 1.0000
vn 0.9637 -0.0000 0.2671
vn -0.0000 1.0000 -0.0000
vn -0.0000 -1.0000 -0.0000
vn 0.9638 -0.0000 0.2667
vn 0.9637 -0.0000 0.2669
vn -0.9639 -0.0000 -0.2662
vn -0.9640 -0.0000 -0.2661
vn 0.9687 -0.0000 0.2481
vn -0.0027 0.0001 1.0000
vn -0.9685 -0.0000 -0.2488
vn -0.9686 -0.0000 -0.2487
vn 0.9687 -0.0000 0.2484
vn 0.9687 -0.0000 0.2482
vn 0.2786 -0.0000 -0.9604
vn -0.9684 -0.0000 -0.2496
vn -0.2201 -0.0000 0.9755
vn 0.9683 -0.0000 0.2496
vn 0.9684 -0.0000 0.2495
vn -0.9684 -0.0000 -0.2495
vn 0.3832 -0.0000 -0.9237
vn -0.9683 -0.0000 -0.2496
vn -0.1113 -0.0000 0.9938
vn 0.9693 -0.0000 0.2458
vn 0.8607 -0.0000 -0.5091
vn -0.7111 -0.0000 -0.7031
vn -0.5130 -0.0000 0.8584
vn -0.5131 -0.0000 0.8584
vn 0.7115 -0.0000 0.7027
vn 0.7113 -0.0000 0.7028
vn 0.7114 -0.0000 0.7028
vn -0.7112 -0.0000 -0.7030
vn 0.7055 -0.0000 0.7087
vn -0.7055 -0.0000 -0.7087
vn 0.7294 -0.0000 -0.6841
vn -0.7048 -0.0000 -0.7094
vn -0.6874 -0.0000 0.7263
vn 0.7046 -0.0000 0.7096
vn 0.7053 -0.0000 0.7089
vn -0.7053 -0.0000 -0.7089
vn 0.7997 -0.0000 -0.6004
vn -0.7056 -0.0000 -0.7087
vn -0.6040 -0.0000 0.7970
vn 0.7069 -0.0000 0.7073
vn 1.0000 -0.0000 0.0018
vn -0.2536 -0.0000 -0.9673
vn -0.8780 -0.0000 0.4787
vn 0.2541 -0.0000 0.9672
vn 0.2539 -0.0000 0.9672
vn 0.2540 -0.0000 0.9672
vn -0.2537 -0.0000 -0.9673
vn 0.2434 -0.0000 0.9699
vn -0.2442 -0.0000 -0.9697
vn -0.2440 -0.0000 -0.9698
vn -0.2441 -0.0000 -0.9697
vn 0.2437 -0.0000 0.9699
vn 0.2435 -0.0000 0.9699
vn 0.9765 -0.0000 -0.2157
vn -0.2427 -0.0000 -0.9701
vn -0.9617 -0.0000 0.2742
vn 0.2423 -0.0000 0.9702
vn 0.9765 -0.0000 -0.2156
vn 0.2444 -0.0000 0.9697
vn -0.2445 -0.0000 -0.9697
vn 0.9943 -0.0000 -0.1068
vn -0.2453 -0.0000 -0.9695
vn -0.9254 -0.0000 0.3789
vt 0.980127 0.103062
vt 0.949641 0.115757
vt 0.949641 0.103062
vt 0.958243 0.103062
vt 0.988729 0.103062
vt 0.988729 0.115757
vt 0.942399 0.062186
vt 0.995971 0.062186
vt 0.995971 0.076013
vt 0.980127 0.076013
vt 0.958243 0.076013
vt 0.942399 0.076013
vt 0.000000 0.062150
vt 0.000000 0.048121
vt 0.905875 0.048121
vt 0.905875 0.062150
vt 0.980908 0.014240
vt 0.959024 0.014240
vt 0.943180 0.014240
vt 0.943180 0.000413
vt 0.996752 0.000413
vt 0.996752 0.014240
vt 0.959024 0.041289
vt 0.980908 0.041289
vt 0.989510 0.041289
vt 0.989510 0.053985
vt 0.950422 0.053985
vt 0.950422 0.041289
vt 0.000000 0.034093
vt 0.905875 0.034093
vt 0.000200 0.259595
vt 0.000200 0.219937
vt 0.906075 0.219937
vt 0.906075 0.259595
vt 0.905753 0.210448
vt -0.000122 0.210448
vt -0.000122 0.156096
vt 0.905753 0.156096
vt 0.905875 0.121202
vt 0.000000 0.121202
vt 0.000000 0.093759
vt 0.905875 0.093759
vt 0.905875 0.025761
vt 0.000000 0.025761
vt 0.000000 0.012881
vt 0.905875 0.012881
vt 0.906387 0.330358
vt 0.000512 0.330358
vt 0.000512 0.321630
vt 0.906387 0.321630
vt 0.000200 0.296828
vt 0.906075 0.296828
vt 0.906075 0.312903
vt 0.000200 0.312903
vt 0.905875 0.089593
vt 0.000000 0.089593
vt 0.000000 0.000000
vt 0.905875 0.000000
vt 0.000512 0.312903
vt 0.906387 0.312903
vt 0.000200 0.281378
vt 0.906075 0.281378
vt 0.906075 0.297453
vt 0.000200 0.297453
vt 0.999050 0.183297
vt 0.999050 0.342604
vt 0.939310 0.342604
vt 0.939310 0.183297
vt 0.985655 0.132863
vt 0.985655 0.179437
vt 0.939081 0.179437
vt 0.939081 0.132863
vt 0.979692 0.781451
vt 0.979692 0.844034
vt -0.000781 0.844034
vt -0.000781 0.781451
vt 0.145247 0.656284
vt 0.145247 0.718868
vt -0.000781 0.718868
vt -0.000781 0.656284
vt 0.979692 0.718868
vt 0.302823 0.656284
vt 0.302823 0.718868
vt 0.156795 0.718868
vt 0.156795 0.656284
vt 1.000000 0.851064
vt 1.000000 1.000000
vt 0.000000 1.000000
vt 0.000000 0.851064
vt 0.998987 0.504118
vt 0.998987 0.652658
vt 0.001647 0.652658
vt 0.001647 0.504118
s 1
usemtl Default_OBJ.004
f 1/1/1 2/2/1 3/3/1 4/4/1
f 2/2/1 1/1/1 5/5/1 6/6/1
f 7/7/1 8/8/1 9/9/1 10/10/1
f 10/10/1 11/11/1 12/12/1 7/7/1
f 4/4/1 11/11/1 10/10/1 1/1/1
f 9/13/2 8/14/2 13/15/2 14/16/2
f 15/17/3 16/18/3 14/19/3 13/20/3
f 13/20/3 17/21/3 18/22/3 15/17/3
f 19/23/3 20/24/3 21/25/3 22/26/3
f 22/26/3 23/27/3 24/28/3 19/23/3
f 16/18/3 15/17/3 20/24/3 19/23/3
f 18/14/4 17/29/4 7/30/4 12/15/4
f 23/31/5 22/32/5 2/33/5 6/34/5
f 13/35/6 8/36/6 7/37/6 17/38/6
f 4/39/7 20/40/7 15/41/7 11/42/7
f 2/43/8 22/44/8 21/45/8 3/46/8
f 20/47/6 4/48/6 3/49/6 21/50/6
f 18/51/5 12/52/5 11/53/5 15/54/5
f 19/55/9 1/56/9 10/13/9 16/16/9
f 23/46/10 6/45/10 5/57/10 24/58/10
f 24/50/6 5/49/6 1/59/6 19/60/6
f 16/61/5 10/62/5 9/63/5 14/64/5
f 25/3/1 26/2/1 27/1/1 28/4/1
f 29/6/1 30/5/1 27/1/1 26/2/1
f 31/9/1 32/8/1 33/11/1 34/10/1
f 35/7/1 36/12/1 33/11/1 32/8/1
f 33/11/1 28/4/1 27/1/1 34/10/1
f 37/15/11 32/14/11 31/13/11 38/16/11
f 39/21/3 37/20/3 40/17/3 41/22/3
f 38/19/3 42/18/3 40/17/3 37/20/3
f 43/28/12 44/27/12 45/24/3 46/23/3
f 47/26/3 48/25/3 45/24/3 44/27/12
f 46/23/3 45/24/3 40/17/3 42/18/3
f 35/30/13 39/29/13 41/14/13 36/15/13
f 26/33/5 47/32/5 44/31/5 29/34/5
f 35/37/6 32/36/6 37/35/6 39/38/6
f 40/41/14 45/40/14 28/39/14 33/42/14
f 48/45/14 47/44/14 26/43/14 25/46/14
f 25/49/6 28/48/6 45/47/6 48/50/6
f 33/53/5 36/52/5 41/51/5 40/54/5
f 34/13/15 27/56/15 46/55/15 42/16/15
f 30/57/16 29/45/16 44/46/16 43/58/16
f 27/59/6 30/49/6 43/50/6 46/60/6
f 31/63/5 34/62/5 42/61/5 38/64/5
f 49/65/17 50/66/17 51/67/17 52/68/17
f 53/65/18 54/66/18 50/67/18 49/68/18
f 55/65/19 56/66/19 54/67/19 53/68/19
f 52/65/20 51/66/20 56/67/20 55/68/20
f 50/69/5 54/70/5 56/71/5 51/72/5
f 57/67/17 58/66/17 59/65/17 60/68/17
f 58/67/21 61/66/21 62/65/21 59/68/21
f 61/67/19 63/66/19 64/65/19 62/68/19
f 63/67/22 57/66/22 60/65/22 64/68/22
f 63/71/5 61/70/5 58/69/5 57/72/5
f 65/73/23 66/74/23 67/75/23 68/76/23
f 69/77/24 70/78/24 66/79/24 65/80/24
f 71/81/25 72/73/25 70/76/25 69/79/25
f 68/82/26 67/83/26 72/84/26 71/85/26
f 66/86/5 70/87/5 72/88/5 67/89/5
f 69/90/6 65/91/6 68/92/6 71/93/6
f 73/1/27 74/2/27 75/3/27 76/4/27
f 74/2/27 73/1/27 77/5/27 78/6/27
f 79/7/27 80/8/27 81/9/27 82/10/27
f 82/10/27 83/11/27 84/12/27 79/7/27
f 76/4/27 83/11/27 82/10/27 73/1/27
f 81/13/28 80/14/28 85/15/28 86/16/28
f 87/17/29 88/18/29 86/19/29 85/20/29
f 85/20/29 89/21/29 90/22/29 87/17/29
f 91/23/29 92/24/30 93/25/30 94/26/29
f 94/26/29 95/27/29 96/28/29 91/23/29
f 88/18/29 87/17/29 92/24/30 91/23/29
f 90/14/31 89/29/31 79/30/31 84/15/31
f 95/31/5 94/32/5 74/33/5 78/34/5
f 85/35/6 80/36/6 79/37/6 89/38/6
f 76/39/32 92/40/32 87/41/32 83/42/32
f 74/43/33 94/44/33 93/45/33 75/46/33
f 92/47/6 76/48/6 75/49/6 93/50/6
f 90/51/5 84/52/5 83/53/5 87/54/5
f 91/55/34 73/56/34 82/13/34 88/16/34
f 95/46/28 78/45/28 77/57/28 96/58/28
f 96/50/6 77/49/6 73/59/6 91/60/6
f 88/61/5 82/62/5 81/63/5 86/64/5
f 97/3/27 98/2/27 99/1/27 100/4/27
f 101/6/27 102/5/27 99/1/27 98/2/27
f 103/9/27 104/8/27 105/11/27 106/10/27
f 107/7/27 108/12/27 105/11/27 104/8/27
f 105/11/27 100/4/27 99/1/27 106/10/27
f 109/15/35 104/14/35 103/13/35 110/16/35
f 111/21/29 109/20/29 112/17/29 113/22/29
f 110/19/29 114/18/29 112/17/29 109/20/29
f 115/28/29 116/27/29 117/24/29 118/23/29
f 119/26/29 120/25/29 117/24/29 116/27/29
f 118/23/29 117/24/29 112/17/29 114/18/29
f 107/30/36 111/29/36 113/14/36 108/15/36
f 98/33/5 119/32/5 116/31/5 101/34/5
f 107/37/6 104/36/6 109/35/6 111/38/6
f 112/41/36 117/40/36 100/39/36 105/42/36
f 120/45/36 119/44/36 98/43/36 97/46/36
f 97/49/6 100/48/6 117/47/6 120/50/6
f 105/53/5 108/52/5 113/51/5 112/54/5
f 106/13/35 99/56/35 118/55/35 114/16/35
f 102/57/35 101/45/35 116/46/35 115/58/35
f 99/59/6 102/49/6 115/50/6 118/60/6
f 103/63/5 106/62/5 114/61/5 110/64/5
f 121/65/37 122/66/37 123/67/37 124/68/37
f 125/65/38 126/66/38 122/67/38 121/68/38
f 127/65/39 128/66/39 126/67/39 125/68/39
f 124/65/40 123/66/40 128/67/40 127/68/40
f 122/69/5 126/70/5 128/71/5 123/72/5
f 129/67/37 130/66/37 131/65/37 132/68/37
f 130/67/41 133/66/41 134/65/41 131/68/41
f 133/67/39 135/66/39 136/65/39 134/68/39
f 135/67/42 129/66/42 132/65/42 136/68/42
f 135/71/5 133/70/5 130/69/5 129/72/5
f 137/73/43 138/74/43 139/75/43 140/76/43
f 141/77/44 142/78/44 138/79/44 137/80/44
f 143/81/45 144/73/45 142/76/45 141/79/45
f 140/82/46 139/83/46 144/84/46 143/85/46
f 138/86/5 142/87/5 144/88/5 139/89/5
f 141/90/6 137/91/6 140/92/6 143/93/6
f 145/1/47 146/2/47 147/3/47 148/4/47
f 146/2/47 145/1/47 149/5/47 150/6/47
f 151/7/47 152/8/47 153/9/47 154/10/47
f 154/10/47 155/11/47 156/12/47 151/7/47
f 148/4/47 155/11/47 154/10/47 145/1/47
f 153/13/48 152/14/48 157/15/48 158/16/48
f 159/17/49 160/18/49 158/19/49 157/20/49
f 157/20/49 161/21/49 162/22/49 159/17/49
f 163/23/49 164/24/49 165/25/49 166/26/49
f 166/26/49 167/27/49 168/28/49 163/23/49
f 160/18/49 159/17/49 164/24/49 163/23/49
f 162/14/50 161/29/50 151/30/50 156/15/50
f 167/31/5 166/32/5 146/33/5 150/34/5
f 157/35/6 152/36/6 151/37/6 161/38/6
f 148/39/51 164/40/51 159/41/51 155/42/51
f 146/43/52 166/44/52 165/45/52 147/46/52
f 164/47/6 148/48/6 147/49/6 165/50/6
f 162/51/5 156/52/5 155/53/5 159/54/5
f 163/55/53 145/56/53 154/13/53 160/16/53
f 167/46/48 150/45/48 149/57/48 168/58/48
f 168/50/6 149/49/6 145/59/6 163/60/6
f 160/61/5 154/62/5 153/63/5 158/64/5
f 169/3/47 170/2/47 171/1/47 172/4/47
f 173/6/47 174/5/47 171/1/47 170/2/47
f 175/9/47 176/8/47 177/11/47 178/10/47
f 179/7/47 180/12/47 177/11/47 176/8/47
f 177/11/47 172/4/47 171/1/47 178/10/47
f 181/15/54 176/14/54 175/13/54 182/16/54
f 183/21/49 181/20/49 184/17/49 185/22/49
f 182/19/49 186/18/49 184/17/49 181/20/49
f 187/28/49 188/27/49 189/24/49 190/23/49
f 191/26/49 192/25/49 189/24/49 188/27/49
f 190/23/49 189/24/49 184/17/49 186/18/49
f 179/30/55 183/29/55 185/14/55 180/15/55
f 170/33/5 191/32/5 188/31/5 173/34/5
f 179/37/6 176/36/6 181/35/6 183/38/6
f 184/41/56 189/40/56 172/39/56 177/42/56
f 192/45/57 191/44/57 170/43/57 169/46/57
f 169/49/6 172/48/6 189/47/6 192/50/6
f 177/53/5 180/52/5 185/51/5 184/54/5
f 178/13/58 171/56/58 190/55/58 186/16/58
f 174/57/59 173/45/59 188/46/59 187/58/59
f 171/59/6 174/49/6 187/50/6 190/60/6
f 175/63/5 178/62/5 186/61/5 182/64/5
f 193/65/60 194/66/60 195/67/60 196/68/60
f 197/65/61 198/66/61 194/67/61 193/68/61
f 199/65/62 200/66/62 198/67/62 197/68/62
f 196/65/63 195/66/63 200/67/63 199/68/63
f 194/69/5 198/70/5 200/71/5 195/72/5
f 201/67/64 202/66/64 203/65/64 204/68/64
f 202/67/65 205/66/65 206/65/65 203/68/65
f 205/67/62 207/66/62 208/65/62 206/68/62
f 207/67/66 201/66/66 204/65/66 208/68/66
f 207/71/5 205/70/5 202/69/5 201/72/5
f 209/73/67 210/74/67 211/75/67 212/76/67
f 213/77/68 214/78/68 210/79/68 209/80/68
f 215/81/69 216/73/69 214/76/69 213/79/69
f 212/82/54 211/83/54 216/84/54 215/85/54
f 210/86/5 214/87/5 216/88/5 211/89/5
f 213/90/6 209/91/6 212/92/6 215/93/6
