# Blender v3.2.0 OBJ File: ''
# www.blender.org
mtllib track_straight_trackpart.mtl
o track_normal.004
v 0.342732 0.030829 0.125000
v 0.308588 0.045048 0.125000
v 0.308588 0.030829 0.125000
v 0.318222 0.030829 0.125000
v 0.352366 0.030829 0.125000
v 0.352366 0.045048 0.125000
v 0.300477 -0.014952 0.125000
v 0.360477 -0.014952 0.125000
v 0.360477 0.000534 0.125000
v 0.342732 0.000534 0.125000
v 0.318222 0.000534 0.125000
v 0.300477 0.000534 0.125000
v 0.360477 -0.014952 -0.125000
v 0.360477 0.000534 -0.125000
v 0.318222 0.000534 -0.125000
v 0.342732 0.000534 -0.125000
v 0.300477 -0.014952 -0.125000
v 0.300477 0.000534 -0.125000
v 0.342732 0.030829 -0.125000
v 0.318222 0.030829 -0.125000
v 0.308588 0.030829 -0.125000
v 0.308588 0.045048 -0.125000
v 0.352366 0.045048 -0.125000
v 0.352366 0.030829 -0.125000
v -0.308588 0.030829 0.125000
v -0.308588 0.045048 0.125000
v -0.342732 0.030829 0.125000
v -0.318222 0.030829 0.125000
v -0.352366 0.045048 0.125000
v -0.352366 0.030829 0.125000
v -0.360477 0.000534 0.125000
v -0.360477 -0.014952 0.125000
v -0.318222 0.000534 0.125000
v -0.342732 0.000534 0.125000
v -0.300477 -0.014952 0.125000
v -0.300477 0.000534 0.125000
v -0.360477 -0.014952 -0.125000
v -0.360477 0.000534 -0.125000
v -0.300477 -0.014952 -0.125000
v -0.318222 0.000534 -0.125000
v -0.300477 0.000534 -0.125000
v -0.342732 0.000534 -0.125000
v -0.352366 0.030829 -0.125000
v -0.352366 0.045048 -0.125000
v -0.318222 0.030829 -0.125000
v -0.342732 0.030829 -0.125000
v -0.308588 0.045048 -0.125000
v -0.308588 0.030829 -0.125000
v -0.287867 -0.066034 0.015000
v -0.287867 0.013966 0.015000
v -0.317867 0.013966 0.015000
v -0.317867 -0.066034 0.015000
v -0.287867 -0.066034 -0.015000
v -0.287867 0.013966 -0.015000
v -0.317867 -0.066034 -0.015000
v -0.317867 0.013966 -0.015000
v 0.317867 0.013966 0.015000
v 0.287867 0.013966 0.015000
v 0.287867 -0.066034 0.015000
v 0.317867 -0.066034 0.015000
v 0.287867 0.013966 -0.015000
v 0.287867 -0.066034 -0.015000
v 0.317867 0.013966 -0.015000
v 0.317867 -0.066034 -0.015000
v 0.470000 -0.070755 0.070000
v 0.470000 -0.010755 0.070000
v -0.470000 -0.010755 0.070000
v -0.470000 -0.070755 0.070000
v 0.470000 -0.070755 -0.070000
v 0.470000 -0.010755 -0.070000
v -0.470000 -0.070755 -0.070000
v -0.470000 -0.010755 -0.070000
vt 0.980127 0.103062
vt 0.949641 0.115757
vt 0.949641 0.103062
vt 0.958243 0.103062
vt 0.988729 0.103062
vt 0.988729 0.115757
vt 0.942399 0.062186
vt 0.995971 0.062186
vt 0.995971 0.076013
vt 0.980127 0.076013
vt 0.958243 0.076013
vt 0.942399 0.076013
vt 0.000000 0.062150
vt 0.000000 0.048121
vt 0.905875 0.048121
vt 0.905875 0.062150
vt 0.980908 0.014240
vt 0.959024 0.014240
vt 0.943180 0.014240
vt 0.943180 0.000413
vt 0.996752 0.000413
vt 0.996752 0.014240
vt 0.959024 0.041289
vt 0.980908 0.041289
vt 0.989510 0.041289
vt 0.989510 0.053985
vt 0.950422 0.053985
vt 0.950422 0.041289
vt 0.000000 0.048121
vt 0.000000 0.034093
vt 0.905875 0.034093
vt 0.905875 0.048121
vt 0.000200 0.259595
vt 0.000200 0.219937
vt 0.906075 0.219937
vt 0.906075 0.259595
vt 0.905753 0.210448
vt -0.000122 0.210448
vt -0.000122 0.156096
vt 0.905753 0.156096
vt 0.905875 0.121202
vt 0.000000 0.121202
vt 0.000000 0.093759
vt 0.905875 0.093759
vt 0.905875 0.025761
vt 0.000000 0.025761
vt 0.000000 0.012881
vt 0.905875 0.012881
vt 0.906387 0.330358
vt 0.000512 0.330358
vt 0.000512 0.321630
vt 0.906387 0.321630
vt 0.000200 0.296828
vt 0.906075 0.296828
vt 0.906075 0.312903
vt 0.000200 0.312903
vt 0.905875 0.089593
vt 0.000000 0.089593
vt 0.000000 0.062150
vt 0.905875 0.062150
vt 0.905875 0.012881
vt 0.000000 0.012881
vt 0.000000 0.000000
vt 0.905875 0.000000
vt 0.906387 0.321630
vt 0.000512 0.321630
vt 0.000512 0.312903
vt 0.906387 0.312903
vt 0.000200 0.281378
vt 0.906075 0.281378
vt 0.906075 0.297453
vt 0.000200 0.297453
vt 0.949641 0.103062
vt 0.949641 0.115757
vt 0.980127 0.103062
vt 0.958243 0.103062
vt 0.988729 0.115757
vt 0.988729 0.103062
vt 0.995971 0.076013
vt 0.995971 0.062186
vt 0.958243 0.076013
vt 0.980127 0.076013
vt 0.942399 0.062186
vt 0.942399 0.076013
vt 0.905875 0.048121
vt 0.000000 0.048121
vt 0.000000 0.062150
vt 0.905875 0.062150
vt 0.996752 0.000413
vt 0.943180 0.000413
vt 0.980908 0.014240
vt 0.996752 0.014240
vt 0.943180 0.014240
vt 0.959024 0.014240
vt 0.950422 0.041289
vt 0.950422 0.053985
vt 0.980908 0.041289
vt 0.959024 0.041289
vt 0.989510 0.053985
vt 0.989510 0.041289
vt 0.905875 0.034093
vt 0.000000 0.034093
vt 0.000000 0.048121
vt 0.905875 0.048121
vt 0.906075 0.219937
vt 0.000200 0.219937
vt 0.000200 0.259595
vt 0.906075 0.259595
vt -0.000122 0.156096
vt -0.000122 0.210448
vt 0.905753 0.210448
vt 0.905753 0.156096
vt 0.000000 0.093759
vt 0.000000 0.121202
vt 0.905875 0.121202
vt 0.905875 0.093759
vt 0.000000 0.012881
vt 0.000000 0.025761
vt 0.905875 0.025761
vt 0.905875 0.012881
vt 0.000512 0.321630
vt 0.000512 0.330358
vt 0.906387 0.330358
vt 0.906387 0.321630
vt 0.906075 0.312903
vt 0.906075 0.296828
vt 0.000200 0.296828
vt 0.000200 0.312903
vt 0.000000 0.062150
vt 0.000000 0.089593
vt 0.905875 0.089593
vt 0.905875 0.062150
vt 0.000000 0.000000
vt 0.000000 0.012881
vt 0.905875 0.012881
vt 0.905875 0.000000
vt 0.000512 0.312903
vt 0.000512 0.321630
vt 0.906387 0.321630
vt 0.906387 0.312903
vt 0.906075 0.297453
vt 0.906075 0.281378
vt 0.000200 0.281378
vt 0.000200 0.297453
vt 0.999050 0.183297
vt 0.999050 0.342604
vt 0.939310 0.342604
vt 0.939310 0.183297
vt 0.999050 0.183297
vt 0.999050 0.342604
vt 0.939310 0.342604
vt 0.939310 0.183297
vt 0.999050 0.183297
vt 0.999050 0.342604
vt 0.939310 0.342604
vt 0.939310 0.183297
vt 0.999050 0.183297
vt 0.999050 0.342604
vt 0.939310 0.342604
vt 0.939310 0.183297
vt 0.985655 0.132863
vt 0.985655 0.179437
vt 0.939081 0.179437
vt 0.939081 0.132863
vt 0.939310 0.342604
vt 0.999050 0.342604
vt 0.999050 0.183297
vt 0.939310 0.183297
vt 0.939310 0.342604
vt 0.999050 0.342604
vt 0.999050 0.183297
vt 0.939310 0.183297
vt 0.939310 0.342604
vt 0.999050 0.342604
vt 0.999050 0.183297
vt 0.939310 0.183297
vt 0.939310 0.342604
vt 0.999050 0.342604
vt 0.999050 0.183297
vt 0.939310 0.183297
vt 0.939081 0.179437
vt 0.985655 0.179437
vt 0.985655 0.132863
vt 0.939081 0.132863
vt 0.979692 0.781451
vt 0.979692 0.844034
vt -0.000781 0.844034
vt -0.000781 0.781451
vt 0.145247 0.656284
vt 0.145247 0.718868
vt -0.000781 0.718868
vt -0.000781 0.656284
vt 0.979692 0.718868
vt 0.979692 0.781451
vt -0.000781 0.781451
vt -0.000781 0.718868
vt 0.302823 0.656284
vt 0.302823 0.718868
vt 0.156795 0.718868
vt 0.156795 0.656284
vt 1.000000 0.851064
vt 1.000000 1.000000
vt 0.000000 1.000000
vt 0.000000 0.851064
vt 0.998987 0.504118
vt 0.998987 0.652658
vt 0.001647 0.652658
vt 0.001647 0.504118
vn 0.0000 0.0000 1.0000
vn 1.0000 0.0000 0.0000
vn 0.0000 0.0000 -1.0000
vn -1.0000 0.0000 0.0000
vn 0.0000 1.0000 0.0000
vn 0.0000 -1.0000 -0.0000
usemtl Default_OBJ.004
s off
f 1/1/1 2/2/1 3/3/1 4/4/1
f 2/2/1 1/1/1 5/5/1 6/6/1
f 7/7/1 8/8/1 9/9/1 10/10/1
f 10/10/1 11/11/1 12/12/1 7/7/1
f 4/4/1 11/11/1 10/10/1 1/1/1
f 9/13/2 8/14/2 13/15/2 14/16/2
f 15/17/3 16/18/3 14/19/3 13/20/3
f 13/20/3 17/21/3 18/22/3 15/17/3
f 19/23/3 20/24/3 21/25/3 22/26/3
f 22/26/3 23/27/3 24/28/3 19/23/3
f 16/18/3 15/17/3 20/24/3 19/23/3
f 18/29/4 17/30/4 7/31/4 12/32/4
f 23/33/5 22/34/5 2/35/5 6/36/5
f 13/37/6 8/38/6 7/39/6 17/40/6
f 4/41/4 20/42/4 15/43/4 11/44/4
f 2/45/4 22/46/4 21/47/4 3/48/4
f 20/49/6 4/50/6 3/51/6 21/52/6
f 18/53/5 12/54/5 11/55/5 15/56/5
f 19/57/2 1/58/2 10/59/2 16/60/2
f 23/61/2 6/62/2 5/63/2 24/64/2
f 24/65/6 5/66/6 1/67/6 19/68/6
f 16/69/5 10/70/5 9/71/5 14/72/5
f 25/73/1 26/74/1 27/75/1 28/76/1
f 29/77/1 30/78/1 27/75/1 26/74/1
f 31/79/1 32/80/1 33/81/1 34/82/1
f 35/83/1 36/84/1 33/81/1 32/80/1
f 33/81/1 28/76/1 27/75/1 34/82/1
f 37/85/4 32/86/4 31/87/4 38/88/4
f 39/89/3 37/90/3 40/91/3 41/92/3
f 38/93/3 42/94/3 40/91/3 37/90/3
f 43/95/3 44/96/3 45/97/3 46/98/3
f 47/99/3 48/100/3 45/97/3 44/96/3
f 46/98/3 45/97/3 40/91/3 42/94/3
f 35/101/2 39/102/2 41/103/2 36/104/2
f 26/105/5 47/106/5 44/107/5 29/108/5
f 35/109/6 32/110/6 37/111/6 39/112/6
f 40/113/2 45/114/2 28/115/2 33/116/2
f 48/117/2 47/118/2 26/119/2 25/120/2
f 25/121/6 28/122/6 45/123/6 48/124/6
f 33/125/5 36/126/5 41/127/5 40/128/5
f 34/129/4 27/130/4 46/131/4 42/132/4
f 30/133/4 29/134/4 44/135/4 43/136/4
f 27/137/6 30/138/6 43/139/6 46/140/6
f 31/141/5 34/142/5 42/143/5 38/144/5
f 49/145/1 50/146/1 51/147/1 52/148/1
f 53/149/2 54/150/2 50/151/2 49/152/2
f 55/153/3 56/154/3 54/155/3 53/156/3
f 52/157/4 51/158/4 56/159/4 55/160/4
f 50/161/5 54/162/5 56/163/5 51/164/5
f 57/165/1 58/166/1 59/167/1 60/168/1
f 58/169/4 61/170/4 62/171/4 59/172/4
f 61/173/3 63/174/3 64/175/3 62/176/3
f 63/177/2 57/178/2 60/179/2 64/180/2
f 63/181/5 61/182/5 58/183/5 57/184/5
f 65/185/1 66/186/1 67/187/1 68/188/1
f 69/189/2 70/190/2 66/191/2 65/192/2
f 71/193/3 72/194/3 70/195/3 69/196/3
f 68/197/4 67/198/4 72/199/4 71/200/4
f 66/201/5 70/202/5 72/203/5 67/204/5
f 69/205/6 65/206/6 68/207/6 71/208/6
