# WaveFront *.obj file (generated by CINEMA 4D)

g Track_roadcrossing
usemtl Mat_1
v 0.35554778575897 0.02999999932945 -0.50047659873962
v 0.35567629337311 0.08271277695894 -0.50004059076309
v 0.4709809422493 0.02999999932945 -0.50047695636749
v 0.36235347390175 0.08269266039133 -0.50030434131622
v 0.4709809422493 0.02999999932945 0.50043570995331
v 0.36181417107582 0.08269266039133 0.49995911121368
v 0.35554778575897 0.02999999932945 0.50043606758118
v 0.35577008128166 0.08271277695894 0.49995940923691
v -0.35553348064423 0.02999999932945 0.50043570995331
v -0.35566198825836 0.08302012085915 0.49999967217445
v -0.47096663713455 0.02974169328809 0.50043606758118
v -0.362339168787 0.08299999684095 0.50026345252991
v -0.47096663713455 0.02974169328809 -0.50047659873962
v -0.36179986596107 0.08299999684095 -0.5
v -0.35553348064423 0.02999999932945 -0.50047695636749
v -0.35575577616692 0.08302012085915 -0.50000029802322
v 0.47024476528168 -0.03038998320699 0.50043606758118
v 0.47024476528168 0.02999999932945 0.50043606758118
v -0.47084456682205 -0.03038998320699 0.50043606758118
v -0.47084456682205 0.0294240526855 0.50043606758118
v -0.47084456682205 -0.03038998320699 -0.50047659873962
v -0.47084456682205 0.02999999932945 -0.50047659873962
v 0.47024476528168 -0.03038998320699 -0.50047659873962
v 0.47024476528168 0.02999999932945 -0.50047659873962
v 0.28829622268677 0.02974169328809 0.50043606758118
v 0.28829622268677 0.0825022906065 0.50043606758118
v -0.28792178630829 0.02974169328809 0.50043606758118
v -0.28792178630829 0.0825022906065 0.50043606758118
v -0.28792178630829 0.02974169328809 -0.50047659873962
v -0.28792178630829 0.0825022906065 -0.50047659873962
v 0.28829622268677 0.02974169328809 -0.50047659873962
v 0.28829622268677 0.0825022906065 -0.50047659873962
v -0.30047699809074 0.02999999932945 0.5
v -0.36047700047493 0.02999999932945 0.5
v -0.36047700047493 0.02999999932945 -0.5
v -0.30047699809074 0.02999999932945 -0.5
v -0.35236600041389 0.08580300211906 0.5
v -0.30858799815178 0.08580300211906 0.5
v -0.36047700047493 0.04128900170326 0.5
v -0.36047700047493 0.04128900170326 -0.5
v -0.35236600041389 0.08580300211906 -0.5
v -0.31822198629379 0.04128900170326 0.5
v -0.34273201227188 0.04128900170326 0.5
v -0.31822198629379 0.07158400118351 0.5
v -0.31822198629379 0.07158400118351 -0.5
v -0.35236600041389 0.07158400118351 0.5
v -0.34273201227188 0.07158400118351 0.5
v -0.34273201227188 0.04128900170326 -0.5
v -0.35236600041389 0.07158400118351 -0.5
v -0.34273201227188 0.07158400118351 -0.5
v -0.31822198629379 0.04128900170326 -0.5
v -0.30858799815178 0.07158400118351 0.5
v -0.30858799815178 0.07158400118351 -0.5
v -0.30047699809074 0.04128900170326 -0.5
v -0.30047699809074 0.04128900170326 0.5
v -0.30858799815178 0.08580300211906 -0.5
v 0.30047699809074 0.02999999932945 0.5
v 0.36047700047493 0.02999999932945 0.5
v 0.36047700047493 0.02999999932945 -0.5
v 0.30047699809074 0.02999999932945 -0.5
v 0.35236600041389 0.08580300211906 0.5
v 0.30858799815178 0.08580300211906 0.5
v 0.36047700047493 0.04128900170326 0.5
v 0.36047700047493 0.04128900170326 -0.5
v 0.35236600041389 0.08580300211906 -0.5
v 0.31822198629379 0.04128900170326 0.5
v 0.34273201227188 0.04128900170326 0.5
v 0.31822198629379 0.07158400118351 0.5
v 0.31822198629379 0.07158400118351 -0.5
v 0.35236600041389 0.07158400118351 0.5
v 0.34273201227188 0.07158400118351 0.5
v 0.34273201227188 0.04128900170326 -0.5
v 0.35236600041389 0.07158400118351 -0.5
v 0.34273201227188 0.07158400118351 -0.5
v 0.31822198629379 0.04128900170326 -0.5
v 0.30858799815178 0.07158400118351 0.5
v 0.30858799815178 0.07158400118351 -0.5
v 0.30047699809074 0.04128900170326 -0.5
v 0.30047699809074 0.04128900170326 0.5
v 0.30858799815178 0.08580300211906 -0.5
v 0.31786701083183 -0.0252790004015 0.38999998569489
v 0.31786701083183 0.05472100153565 0.38999998569489
v 0.28786700963974 -0.0252790004015 0.38999998569489
v 0.28786700963974 0.05472100153565 0.38999998569489
v 0.28786700963974 -0.0252790004015 0.36000001430511
v 0.28786700963974 0.05472100153565 0.36000001430511
v 0.31786701083183 -0.0252790004015 0.36000001430511
v 0.31786701083183 0.05472100153565 0.36000001430511
v -0.31786701083183 -0.0252790004015 0.38999998569489
v -0.31786701083183 0.05472100153565 0.38999998569489
v -0.28786700963974 -0.0252790004015 0.38999998569489
v -0.28786700963974 0.05472100153565 0.38999998569489
v -0.28786700963974 -0.0252790004015 0.36000001430511
v -0.28786700963974 0.05472100153565 0.36000001430511
v -0.31786701083183 -0.0252790004015 0.36000001430511
v -0.31786701083183 0.05472100153565 0.36000001430511
v 0.31786701083183 -0.0252790004015 0.14000000059605
v 0.31786701083183 0.05472100153565 0.14000000059605
v 0.28786700963974 -0.0252790004015 0.14000000059605
v 0.28786700963974 0.05472100153565 0.14000000059605
v 0.28786700963974 -0.0252790004015 0.10999999940395
v 0.28786700963974 0.05472100153565 0.10999999940395
v 0.31786701083183 -0.0252790004015 0.10999999940395
v 0.31786701083183 0.05472100153565 0.10999999940395
v -0.31786701083183 -0.0252790004015 0.14000000059605
v -0.31786701083183 0.05472100153565 0.14000000059605
v -0.28786700963974 -0.0252790004015 0.14000000059605
v -0.28786700963974 0.05472100153565 0.14000000059605
v -0.28786700963974 -0.0252790004015 0.10999999940395
v -0.28786700963974 0.05472100153565 0.10999999940395
v -0.31786701083183 -0.0252790004015 0.10999999940395
v -0.31786701083183 0.05472100153565 0.10999999940395
v 0.31786701083183 -0.0252790004015 -0.10999999940395
v 0.31786701083183 0.05472100153565 -0.10999999940395
v 0.28786700963974 -0.0252790004015 -0.10999999940395
v 0.28786700963974 0.05472100153565 -0.10999999940395
v 0.28786700963974 -0.0252790004015 -0.14000000059605
v 0.28786700963974 0.05472100153565 -0.14000000059605
v 0.31786701083183 -0.0252790004015 -0.14000000059605
v 0.31786701083183 0.05472100153565 -0.14000000059605
v -0.31786701083183 -0.0252790004015 -0.10999999940395
v -0.31786701083183 0.05472100153565 -0.10999999940395
v -0.28786700963974 -0.0252790004015 -0.10999999940395
v -0.28786700963974 0.05472100153565 -0.10999999940395
v -0.28786700963974 -0.0252790004015 -0.14000000059605
v -0.28786700963974 0.05472100153565 -0.14000000059605
v -0.31786701083183 -0.0252790004015 -0.14000000059605
v -0.31786701083183 0.05472100153565 -0.14000000059605
v 0.31786701083183 -0.0252790004015 -0.36000001430511
v 0.31786701083183 0.05472100153565 -0.36000001430511
v 0.28786700963974 -0.0252790004015 -0.36000001430511
v 0.28786700963974 0.05472100153565 -0.36000001430511
v 0.28786700963974 -0.0252790004015 -0.38999998569489
v 0.28786700963974 0.05472100153565 -0.38999998569489
v 0.31786701083183 -0.0252790004015 -0.38999998569489
v 0.31786701083183 0.05472100153565 -0.38999998569489
v -0.31786701083183 -0.0252790004015 -0.36000001430511
v -0.31786701083183 0.05472100153565 -0.36000001430511
v -0.28786700963974 -0.0252790004015 -0.36000001430511
v -0.28786700963974 0.05472100153565 -0.36000001430511
v -0.28786700963974 -0.0252790004015 -0.38999998569489
v -0.28786700963974 0.05472100153565 -0.38999998569489
v -0.31786701083183 -0.0252790004015 -0.38999998569489
v -0.31786701083183 0.05472100153565 -0.38999998569489
v -0.38576629757881 0 0.29711091518402
# 145 vertices

vn -0.01972694322467 0.00581630133092 -0.99978846311569
vn 0.43556618690491 0.90015667676926 0.00011765441741
vn 0.22497645020485 0.97436422109604 0.00006066755304
vn 0.00004152924885 0.00912616588175 0.9999583363533
vn -0.99999445676804 0.00332789961249 0.00004689356138
vn 0.00317053496838 0.99999499320984 0.00000065611113
vn 0 -1 0
vn 0.01972560957074 0.00578240351751 0.99978870153427
vn -0.43934327363968 0.89831924438477 -0.00011867353169
vn -0.2270228266716 0.97388941049576 -0.00006121963816
vn -0.00005143025192 0.00905068777502 -0.99995905160904
vn 0.99999451637268 0.00330860866234 -0.00004689356501
vn -0.00317170890048 0.99999499320984 -0.00000065635442
vn 0.002237705281 -0.99999749660492 0
vn 0 0 1
vn -1 0 0
vn 0 0 -1
vn 1 0 0
vn -0.00030599991442 0.99999994039536 0.0002877106599
vn 0 1 0
# 20 normals

vt 0.99971008300781 0.87539100646973 1
vt 0.50143432617188 0.87536811828613 1
vt 0.50106811523438 0.99830400943756 1
vt 0.99920654296875 0.9986606836319 1
vt 0.50161743164062 0.8755054473877 1
vt 0.50077819824219 0.99897748231888 1
vt 0.99940490722656 0.99842035770416 1
vt 1 0.87590599060059 1
vt 0.99980163574219 0.87587547302246 1
vt 0.50115966796875 0.87582397460938 1
vt 0.50103759765625 0.9973219037056 1
vt 0.99932861328125 0.99851560592651 1
vt 0.5010986328125 0.9382495880127 1
vt 0.5010986328125 0.99889612197876 1
vt 0.99948120117188 0.99794387817383 1
vt 0.99931335449219 0.93761157989502 1
vt 0.50129699707031 0.93789482116699 1
vt 0.50114440917969 0.99852824211121 1
vt 0.9993896484375 0.99882733821869 1
vt 0.99922180175781 0.93788433074951 1
vt 0.50051879882812 0.00088500976562 1
vt 0.50021362304688 0.999835729599 1
vt 0.99969482421875 0.99957031011581 1
vt 0.99952697753906 0.00065612792969 1
vt 0.99974060058594 0.87580871582031 1
vt 0.5013427734375 0.87617301940918 1
vt 0.50080871582031 0.9994050860405 1
vt 0.99942016601562 0.9984860420227 1
vt 0.50123596191406 0.87558174133301 1
vt 0.50071716308594 0.99908900260925 1
vt 0.99943542480469 0.99802625179291 1
vt 0.999755859375 0.87472915649414 1
vt 0.501220703125 0.99934422969818 1
vt 0.99945068359375 0.99901640415192 1
vt 0.99972534179688 0.87583541870117 1
vt 0.50079345703125 0.87740135192871 1
vt 0.50106811523438 0.9380407333374 1
vt 0.50106811523438 0.99837499856949 1
vt 0.99977111816406 0.9986697435379 1
vt 0.99928283691406 0.93771362304688 1
vt 0.50143432617188 0.93772792816162 1
vt 0.50115966796875 0.99868643283844 1
vt 0.9993896484375 0.99867391586304 1
vt 0.99922180175781 0.93802928924561 1
vt 0.50120544433594 0.12599182128906 1
vt 0.50086975097656 0.87322998046875 1
vt 0.99937438964844 0.87397003173828 1
vt 0.99969482421875 0.12602233886719 1
vt 0.50103759765625 0.12677001953125 1
vt 0.50064086914062 0.87363052368164 1
vt 0.99961853027344 0.87380599975586 1
vt 0.99946594238281 0.12648010253906 1
vt 0.50074768066406 0.12692260742188 1
vt 0.50096130371094 0.87340545654297 1
vt 0.99960327148438 0.87406921386719 1
vt 0.99960327148438 0.12664794921875 1
vt 0.500732421875 0.12551879882812 1
vt 0.50064086914062 0.87300872802734 1
vt 0.99961853027344 0.87380218505859 1
vt 0.99977111816406 0.12648010253906 1
vt 0.50114440917969 0.12603759765625 1
vt 0.50059509277344 0.87279891967773 1
vt 0.99935913085938 0.87422561645508 1
vt 0.99951171875 0.12699890136719 1
vt 0.50064086914062 0.12614440917969 1
vt 0.50071716308594 0.87360382080078 1
vt 0.9993896484375 0.87410354614258 1
vt 0.99954223632812 0.12617492675781 1
vt 0.99958801269531 0.00042724609375 1
vt 0.50033569335938 0.00105285644531 1
vt 0.50067138671875 0.99952572584152 1
vt 0.99971008300781 0.99941217899323 1
vt 0.501220703125 0.9380407333374 1
vt 0.50123596191406 0.99899929761887 1
vt 0.99977111816406 0.99929732084274 1
vt 0.99960327148438 0.93709182739258 1
vt 0.50065612792969 0.99966281652451 1
vt 0.99955749511719 0.99896788597107 1
vt 0.99974060058594 0.000244140625 1
vt 0.50035095214844 0.00059509277344 1
vt 0.50106811523438 0.93835258483887 1
vt 0.50091552734375 0.99868643283844 1
vt 0.99946594238281 0.99835848808289 1
vt 0.99945068359375 0.93802642822266 1
vt 0.99972534179688 0 1
vt 0.5003662109375 0.0006103515625 1
vt 0.50082397460938 0.99996948242188 1
vt 0.99986267089844 0.99960261583328 1
vt 0.47932434082031 0.10841369628906 1
vt 0.47503662109375 0.10841369628906 1
vt 0.47503662109375 0.12091064453125 1
vt 0.490234375 0.10841369628906 1
vt 0.49452209472656 0.12091064453125 1
vt 0.49452209472656 0.10841369628906 1
vt 0.490234375 0.08177185058594 1
vt 0.49813079833984 0.08177185058594 1
vt 0.49813079833984 0.06814575195312 1
vt 0.47142791748047 0.06814575195312 1
vt 0.47142791748047 0.08177185058594 1
vt 0.47932434082031 0.08177185058594 1
vt 0.45376586914062 0.06158447265625 1
vt 0.45376586914062 0.04872131347656 1
vt 0.00142478942871 0.048095703125 1
vt 0.00142478942871 0.0618896484375 1
vt 0.47119140625 0.00543212890625 1
vt 0.47119140625 0.01905822753906 1
vt 0.47908782958984 0.01905822753906 1
vt 0.48999786376953 0.01905822753906 1
vt 0.49789428710938 0.01905822753906 1
vt 0.49789428710938 0.00543212890625 1
vt 0.49459838867188 0.05819702148438 1
vt 0.49459838867188 0.04570007324219 1
vt 0.49031066894531 0.04570007324219 1
vt 0.47940063476562 0.04570007324219 1
vt 0.47908782958984 0.04570007324219 1
vt 0.47480010986328 0.04570007324219 1
vt 0.47480010986328 0.05819702148438 1
vt 0.49428558349609 0.05819702148438 1
vt 0.48999786376953 0.04570007324219 1
vt 0.45349884033203 0.04679870605469 1
vt 0.45349884033203 0.03309631347656 1
vt 0.00163960456848 0.03309631347656 1
vt 0.00163960456848 0.04679870605469 1
vt 0.45355224609375 0.25888061523438 1
vt 0.45347595214844 0.21914672851562 1
vt 0.00003051757812 0.21914672851562 1
vt 0.00022973492742 0.25804138183594 1
vt 0.45346832275391 0.1593017578125 1
vt 0.00028944760561 0.1593017578125 1
vt 0.00044555217028 0.21456909179688 1
vt 0.45346832275391 0.2130126953125 1
vt 0.45352935791016 0.09799194335938 1
vt 0.00195181369781 0.09799194335938 1
vt 0.00195181369781 0.12503051757812 1
vt 0.45352935791016 0.12503051757812 1
vt 0.45352935791016 0.01834106445312 1
vt 0.00195181369781 0.01834106445312 1
vt 0.00195181369781 0.03102111816406 1
vt 0.45352935791016 0.03102111816406 1
vt 0.4541015625 0.32919311523438 1
vt 0.00033378601074 0.32887268066406 1
vt 0.00033378601074 0.34402465820312 1
vt 0.45440673828125 0.34402465820312 1
vt 0.00033435970545 0.31195068359375 1
vt 0.45425415039062 0.31227111816406 1
vt 0.4541015625 0.29580688476562 1
vt 0.0004904717207 0.29768371582031 1
vt 0.45352935791016 0.06686401367188 1
vt 0.00195181369781 0.06686401367188 1
vt 0.00195181369781 0.09388732910156 1
vt 0.45352935791016 0.09388732910156 1
vt 0.45352935791016 0.00566101074219 1
vt 0.00195181369781 0.00566101074219 1
vt 0.45453643798828 0.31248474121094 1
vt 0.00032182782888 0.3131103515625 1
vt 0.00032182782888 0.3282470703125 1
vt 0.4542236328125 0.32794189453125 1
vt 0.00033435970545 0.29798889160156 1
vt 0.4541015625 0.29611206054688 1
vt 0.4541015625 0.28184509277344 1
vt 0.0004904717207 0.28121948242188 1
vt 0.49452209472656 0.04537963867188 1
vt 0.47511291503906 0.05819702148438 1
vt 0.47511291503906 0.04570007324219 1
vt 0.49452209472656 0.04570007324219 1
vt 0.49428558349609 0.04570007324219 1
vt 0.47893524169922 0.01905822753906 1
vt 0.48984527587891 0.01905822753906 1
vt 0.48999786376953 0.04537963867188 1
vt 0.00788378715515 0.12471008300781 1
vt 0.46894836425781 0.18742370605469 1
vt 0.46894836425781 0.34339904785156 1
vt 0.50028991699219 0.34339904785156 1
vt 0.50013732910156 0.18742370605469 1
vt 0.468994140625 0.12527465820312 1
vt 0.468994140625 0.1873779296875 1
vt 0.50001525878906 0.1873779296875 1
vt 0.49986267089844 0.12527465820312 1
# 178 texture coordinates

o Track_roadcrossing
usemtl Mat_1
f 1/1/1 2/2/1 4/3/1 3/4/1
f 3/5/2 4/6/3 6/7/3 5/8/2
f 5/9/4 6/10/4 8/11/4 7/12/4
f 7/13/5 8/14/5 2/15/5 1/16/5
f 2/17/6 8/18/6 6/19/3 4/20/3
f 7/21/7 1/22/7 3/23/7 5/24/7
f 9/25/8 10/26/8 12/27/8 11/28/8
f 11/29/9 12/30/10 14/31/10 13/32/9
f 13/33/11 14/34/11 16/35/11 15/36/11
f 15/37/12 16/38/12 10/39/12 9/40/12
f 10/41/13 16/42/13 14/43/10 12/44/10
f 15/21/14 9/22/14 11/23/14 13/24/14
f 17/45/15 18/46/15 20/47/15 19/48/15
f 19/49/16 20/50/16 22/51/16 21/52/16
f 21/53/17 22/54/17 24/55/17 23/56/17
f 23/57/18 24/58/18 18/59/18 17/60/18
f 18/61/19 24/62/19 22/63/19 20/64/19
f 23/65/7 17/66/7 19/67/7 21/68/7
f 25/69/15 26/70/15 28/71/15 27/72/15
f 27/73/16 28/74/16 30/75/16 29/76/16
f 29/77/17 30/78/17 32/79/17 31/80/17
f 31/81/18 32/82/18 26/83/18 25/84/18
f 26/85/20 32/86/20 30/87/20 28/88/20
f 31/21/7 25/22/7 27/23/7 29/24/7
f 44/89/15 52/90/15 38/91/15 47/92/15
f 37/93/15 46/94/15 47/92/15 38/91/15
f 43/95/15 39/96/15 34/97/15 33/98/15
f 33/98/15 55/99/15 42/100/15 43/95/15
f 47/92/15 43/95/15 42/100/15 44/89/15
f 40/101/16 35/102/16 34/103/16 39/104/16
f 35/105/17 40/106/17 48/107/17 51/108/17
f 51/108/17 54/109/17 36/110/17 35/105/17
f 56/111/17 53/112/17 45/113/17 50/114/17
f 50/115/17 49/116/17 41/117/17 56/118/17
f 50/115/17 45/119/17 51/108/17 48/107/17
f 55/120/18 33/121/18 36/122/18 54/123/18
f 37/124/20 38/125/20 56/126/20 41/127/20
f 36/128/7 33/129/7 34/130/7 35/131/7
f 42/132/18 51/133/18 45/134/18 44/135/18
f 52/136/18 53/137/18 56/138/18 38/139/18
f 53/140/7 52/141/7 44/142/7 45/143/7
f 51/144/20 42/145/20 55/146/20 54/147/20
f 48/148/16 43/149/16 47/150/16 50/151/16
f 49/152/16 46/153/16 37/137/16 41/136/16
f 50/154/7 47/155/7 46/156/7 49/157/7
f 40/158/20 39/159/20 43/160/20 48/161/20
f 68/89/15 71/92/15 62/91/15 76/90/15
f 62/91/15 71/92/15 70/94/15 61/93/15
f 67/95/15 66/100/15 58/97/15 63/96/15
f 58/97/15 66/100/15 79/99/15 57/98/15
f 67/95/15 71/92/15 68/89/15 66/100/15
f 64/101/18 63/104/18 58/103/18 59/102/18
f 78/109/17 75/108/17 59/105/17 60/110/17
f 59/105/17 75/108/17 72/107/17 64/106/17
f 74/114/17 69/162/17 65/163/17 73/164/17
f 65/117/17 69/165/17 77/166/17 80/118/17
f 72/167/17 75/168/17 69/169/17 74/115/17
f 79/120/16 78/123/16 60/122/16 57/121/16
f 61/124/20 65/127/20 80/126/20 62/125/20
f 60/128/7 59/131/7 58/130/7 57/129/7
f 66/132/16 68/135/16 69/170/16 75/133/16
f 76/136/16 62/139/16 80/138/16 77/137/16
f 77/140/7 69/143/7 68/142/7 76/141/7
f 75/144/20 78/147/20 79/146/20 66/145/20
f 72/148/18 74/151/18 71/150/18 67/149/18
f 73/152/18 65/136/18 61/137/18 70/153/18
f 74/154/7 73/157/7 70/156/7 71/155/7
f 64/158/20 72/161/20 67/160/20 63/159/20
f 81/171/15 82/172/15 84/173/15 83/174/15
f 83/171/16 84/172/16 86/173/16 85/174/16
f 85/171/17 86/172/17 88/173/17 87/174/17
f 87/171/18 88/172/18 82/173/18 81/174/18
f 82/175/20 88/176/20 86/177/20 84/178/20
f 89/171/15 91/174/15 92/173/15 90/172/15
f 91/171/18 93/174/18 94/173/18 92/172/18
f 93/171/17 95/174/17 96/173/17 94/172/17
f 95/171/16 89/174/16 90/173/16 96/172/16
f 90/175/20 92/178/20 94/177/20 96/176/20
f 97/171/15 98/172/15 100/173/15 99/174/15
f 99/171/16 100/172/16 102/173/16 101/174/16
f 101/171/17 102/172/17 104/173/17 103/174/17
f 103/171/18 104/172/18 98/173/18 97/174/18
f 98/175/20 104/176/20 102/177/20 100/178/20
f 105/171/15 107/174/15 108/173/15 106/172/15
f 107/171/18 109/174/18 110/173/18 108/172/18
f 109/171/17 111/174/17 112/173/17 110/172/17
f 111/171/16 105/174/16 106/173/16 112/172/16
f 106/175/20 108/178/20 110/177/20 112/176/20
f 113/171/15 114/172/15 116/173/15 115/174/15
f 115/171/16 116/172/16 118/173/16 117/174/16
f 117/171/17 118/172/17 120/173/17 119/174/17
f 119/171/18 120/172/18 114/173/18 113/174/18
f 114/175/20 120/176/20 118/177/20 116/178/20
f 121/171/15 123/174/15 124/173/15 122/172/15
f 123/171/18 125/174/18 126/173/18 124/172/18
f 125/171/17 127/174/17 128/173/17 126/172/17
f 127/171/16 121/174/16 122/173/16 128/172/16
f 122/175/20 124/178/20 126/177/20 128/176/20
f 129/171/15 130/172/15 132/173/15 131/174/15
f 131/171/16 132/172/16 134/173/16 133/174/16
f 133/171/17 134/172/17 136/173/17 135/174/17
f 135/171/18 136/172/18 130/173/18 129/174/18
f 130/175/20 136/176/20 134/177/20 132/178/20
f 137/171/15 139/174/15 140/173/15 138/172/15
f 139/171/18 141/174/18 142/173/18 140/172/18
f 141/171/17 143/174/17 144/173/17 142/172/17
f 143/171/16 137/174/16 138/173/16 144/172/16
f 138/175/20 140/178/20 142/177/20 144/176/20
